<svg width="55" height="55" viewBox="0 0 55 55" fill="none" xmlns="http://www.w3.org/2000/svg">
<path d="M27.5 48.125C38.8909 48.125 48.125 38.8909 48.125 27.5C48.125 16.1091 38.8909 6.875 27.5 6.875C16.1091 6.875 6.875 16.1091 6.875 27.5C6.875 38.8909 16.1091 48.125 27.5 48.125Z" stroke="#0071DA" stroke-width="4" stroke-linecap="round" stroke-linejoin="round"/>
<path d="M33.9167 20.6251C33.5015 19.9049 32.8984 19.3113 32.1718 18.9076C31.4451 18.5039 30.6224 18.3054 29.7917 18.3334H25.2083C23.9928 18.3334 22.827 18.8163 21.9674 19.6758C21.1079 20.5354 20.625 21.7012 20.625 22.9167C20.625 24.1323 21.1079 25.2981 21.9674 26.1576C22.827 27.0172 23.9928 27.5001 25.2083 27.5001H29.7917C31.0072 27.5001 32.173 27.983 33.0326 28.8425C33.8921 29.702 34.375 30.8678 34.375 32.0834C34.375 33.299 33.8921 34.4648 33.0326 35.3243C32.173 36.1839 31.0072 36.6667 29.7917 36.6667H25.2083C24.3776 36.6947 23.5549 36.4962 22.8283 36.0926C22.1016 35.6889 21.4985 35.0952 21.0833 34.3751" stroke="#0071DA" stroke-width="4" stroke-linecap="round" stroke-linejoin="round"/>
<path d="M27.5 13.75V18.3333M27.5 36.6667V41.25" stroke="#0071DA" stroke-width="4" stroke-linecap="round" stroke-linejoin="round"/>
</svg>
