<svg width="60" height="60" viewBox="0 0 60 60" fill="none" xmlns="http://www.w3.org/2000/svg">
<path d="M22.5 22.5V20C22.5 18.0109 23.2902 16.1032 24.6967 14.6967C26.1032 13.2902 28.0109 12.5 30 12.5C31.9891 12.5 33.8968 13.2902 35.3033 14.6967C36.7098 16.1032 37.5 18.0109 37.5 20V22.5" stroke="#0071DA" stroke-width="4" stroke-linecap="round" stroke-linejoin="round"/>
<path d="M20 22.5H40C41.489 24.7315 42.3523 27.3214 42.5 30V37.5C42.5 40.8152 41.183 43.9946 38.8388 46.3388C36.4946 48.683 33.3152 50 30 50C26.6848 50 23.5054 48.683 21.1612 46.3388C18.817 43.9946 17.5 40.8152 17.5 37.5V30C17.6477 27.3214 18.511 24.7315 20 22.5" stroke="#0071DA" stroke-width="4" stroke-linecap="round" stroke-linejoin="round"/>
<path d="M7.5 32.5H17.5" stroke="#0071DA" stroke-width="4" stroke-linecap="round" stroke-linejoin="round"/>
<path d="M42.5 32.5H52.5" stroke="#0071DA" stroke-width="4" stroke-linecap="round" stroke-linejoin="round"/>
<path d="M30 50V35" stroke="#0071DA" stroke-width="4" stroke-linecap="round" stroke-linejoin="round"/>
<path d="M10 47.5L18.375 42.5" stroke="#0071DA" stroke-width="4" stroke-linecap="round" stroke-linejoin="round"/>
<path d="M50 47.5L41.625 42.5" stroke="#0071DA" stroke-width="4" stroke-linecap="round" stroke-linejoin="round"/>
<path d="M10 17.5L19.375 23.5" stroke="#0071DA" stroke-width="4" stroke-linecap="round" stroke-linejoin="round"/>
<path d="M50 17.5L40.625 23.5" stroke="#0071DA" stroke-width="4" stroke-linecap="round" stroke-linejoin="round"/>
</svg>
