<svg width="600" height="537" viewBox="0 0 600 537" fill="none" xmlns="http://www.w3.org/2000/svg">
<path d="M290.188 529.191C428.497 529.191 540.618 522.493 540.618 514.232C540.618 505.97 428.497 499.273 290.188 499.273C151.879 499.273 39.7578 505.97 39.7578 514.232C39.7578 522.493 151.879 529.191 290.188 529.191Z" fill="#263238"/>
<path d="M160.596 203.412V71.6875H442.21V169.593H545.507V295.097" stroke="#263238" stroke-linecap="round" stroke-linejoin="round" stroke-dasharray="3 3"/>
<path d="M361.036 94.213L373.128 49.2742H336.43L361.036 94.213Z" fill="white" stroke="#263238" stroke-linecap="round" stroke-linejoin="round"/>
<path d="M361.035 94.2129L363.724 50.9819H340.373L361.035 94.2129Z" fill="#407BFF" stroke="#263238" stroke-linecap="round" stroke-linejoin="round"/>
<path d="M361.036 94.2129L358.538 47.6162H335.188L361.036 94.2129Z" fill="#407BFF" stroke="#263238" stroke-linecap="round" stroke-linejoin="round"/>
<path d="M317.446 45.4596L311.414 39.2393H279.725L294.6 94.2129H361.036L350.5 45.4596H317.446Z" fill="white" stroke="#263238" stroke-linecap="round" stroke-linejoin="round"/>
<path d="M481.925 101.73H402.784C400.018 101.73 397.775 103.778 397.775 106.305V145.36C397.775 147.886 400.018 149.935 402.784 149.935H481.925C484.692 149.935 486.934 147.886 486.934 145.36V106.305C486.934 103.778 484.692 101.73 481.925 101.73Z" fill="white" stroke="#263238" stroke-linecap="round" stroke-linejoin="round"/>
<path d="M486.934 110.88H397.775V128.331H486.934V110.88Z" fill="#407BFF" stroke="#263238" stroke-linecap="round" stroke-linejoin="round"/>
<path d="M468.11 142.245C468.112 141.568 467.895 140.906 467.485 140.342C467.075 139.778 466.491 139.338 465.808 139.078C465.124 138.818 464.371 138.749 463.644 138.88C462.917 139.012 462.25 139.337 461.726 139.816C461.202 140.295 460.846 140.905 460.702 141.569C460.558 142.233 460.633 142.921 460.918 143.546C461.203 144.171 461.684 144.705 462.301 145.079C462.918 145.454 463.643 145.652 464.384 145.65C465.371 145.647 466.317 145.287 467.014 144.649C467.712 144.011 468.106 143.147 468.11 142.245Z" fill="white" stroke="#263238" stroke-linecap="round" stroke-linejoin="round"/>
<path d="M478.469 142.245C478.469 141.572 478.251 140.913 477.841 140.353C477.432 139.793 476.85 139.357 476.169 139.099C475.488 138.842 474.739 138.774 474.016 138.906C473.294 139.037 472.63 139.361 472.109 139.837C471.588 140.314 471.233 140.92 471.089 141.581C470.945 142.241 471.019 142.926 471.301 143.548C471.583 144.17 472.061 144.702 472.673 145.076C473.286 145.45 474.006 145.65 474.743 145.65C475.73 145.647 476.676 145.287 477.374 144.649C478.072 144.011 478.465 143.147 478.469 142.245Z" fill="white" stroke="#263238" stroke-linecap="round" stroke-linejoin="round"/>
<path d="M211.35 104.572H104.668V155.345H211.35V104.572Z" fill="white" stroke="#263238" stroke-linecap="round" stroke-linejoin="round"/>
<path d="M211.35 104.572H104.668V113.573H211.35V104.572Z" fill="#263238" stroke="#263238" stroke-linecap="round" stroke-linejoin="round"/>
<path d="M195.286 124.367H120.717V138.927H195.286V124.367Z" fill="#407BFF" stroke="#263238" stroke-linecap="round" stroke-linejoin="round"/>
<path d="M126.652 129.229H127.935L127.744 131.225L129.559 129.977L130.201 130.988L128.14 131.911L130.201 132.883L129.559 133.906L127.744 132.659L127.935 134.679H126.652L126.898 132.622L125.083 133.869L124.441 132.846L126.448 131.923L124.4 131.05L125.042 130.04L126.884 131.287L126.652 129.229Z" fill="#263238"/>
<path d="M134.338 129.229H135.621L135.43 131.225L137.231 129.977L137.872 130.988L135.825 131.911L137.872 132.883L137.231 133.906L135.43 132.659L135.621 134.679H134.338L134.57 132.622L132.755 133.869L132.127 132.846L134.119 131.923L132.072 131.05L132.727 130.04L134.57 131.287L134.338 129.229Z" fill="#263238"/>
<path d="M142.004 129.229H143.287L143.096 131.225L144.911 129.977L145.552 130.988L143.491 131.911L145.552 132.883L144.911 133.906L143.096 132.659L143.287 134.679H142.004L142.249 132.622L140.434 133.869L139.793 132.846L141.799 131.923L139.752 131.05L140.393 130.04L142.236 131.287L142.004 129.229Z" fill="#263238"/>
<path d="M149.689 129.229H150.972L150.781 131.225L152.583 129.977L153.224 130.988L151.177 131.911L153.224 132.883L152.583 133.906L150.781 132.659L150.972 134.679H149.689L149.921 132.622L148.106 133.869L147.478 132.846L149.471 131.923L147.424 131.05L148.079 130.04L149.921 131.287L149.689 129.229Z" fill="#263238"/>
<path d="M157.363 129.229H158.646L158.455 131.225L160.27 129.977L160.911 130.988L158.851 131.911L160.911 132.883L160.27 133.906L158.455 132.659L158.646 134.679H157.363L157.609 132.622L155.794 133.869L155.152 132.846L157.158 131.923L155.111 131.05L155.753 130.04L157.595 131.287L157.363 129.229Z" fill="#263238"/>
<path d="M165.043 129.229H166.326L166.135 131.225L167.936 129.977L168.577 130.988L166.53 131.911L168.577 132.883L167.936 133.906L166.135 132.659L166.326 134.679H165.043L165.275 132.622L163.46 133.869L162.832 132.846L164.824 131.923L162.777 131.05L163.432 130.04L165.275 131.287L165.043 129.229Z" fill="#263238"/>
<path d="M172.715 129.229H173.998L173.807 131.225L175.622 129.977L176.263 130.988L174.202 131.911L176.263 132.883L175.622 133.906L173.807 132.659L173.998 134.679H172.715L172.96 132.622L171.145 133.869L170.504 132.846L172.51 131.923L170.463 131.05L171.104 130.04L172.947 131.287L172.715 129.229Z" fill="#263238"/>
<path d="M180.396 129.229H181.693L181.502 131.225L183.303 129.977L183.945 130.988L181.898 131.911L183.945 132.883L183.303 133.906L181.502 132.659L181.693 134.679H180.41L180.642 132.622L178.827 133.869L178.199 132.846L180.192 131.923L178.145 131.05L178.8 130.04L180.642 131.287L180.396 129.229Z" fill="#263238"/>
<path d="M188.066 129.229H189.349L189.158 131.225L190.973 129.977L191.615 130.988L189.554 131.911L191.615 132.883L190.973 133.906L189.158 132.659L189.349 134.679H188.066L188.312 132.622L186.497 133.869L185.855 132.846L187.862 131.923L185.814 131.05L186.456 130.04L188.298 131.287L188.066 129.229Z" fill="#263238"/>
<path d="M252.741 71.6499L228.244 61.8644V81.448L252.741 71.6499Z" fill="#263238"/>
<path d="M546.037 258.685C558.134 258.685 567.941 249.728 567.941 238.678C567.941 227.628 558.134 218.67 546.037 218.67C533.94 218.67 524.133 227.628 524.133 238.678C524.133 249.728 533.94 258.685 546.037 258.685Z" fill="white" stroke="#263238" stroke-linecap="round" stroke-linejoin="round"/>
<path d="M557.55 249.195C563.908 243.388 563.908 233.972 557.55 228.164C551.191 222.356 540.883 222.356 534.524 228.164C528.166 233.972 528.166 243.388 534.524 249.195C540.883 255.003 551.191 255.003 557.55 249.195Z" fill="#407BFF" stroke="#263238" stroke-linecap="round" stroke-linejoin="round"/>
<path d="M540.006 244.063C539.74 243.897 539.546 243.649 539.461 243.365C539.362 243.102 539.362 242.817 539.461 242.555C539.551 242.294 539.705 242.055 539.911 241.857C540.121 241.651 540.409 241.526 540.716 241.508C541.081 241.487 541.445 241.561 541.767 241.719L542.34 241.994C542.654 242.143 542.927 242.28 543.159 242.368C543.482 242.495 543.815 242.599 544.155 242.679C544.602 242.784 545.059 242.842 545.52 242.854C545.864 242.891 546.213 242.891 546.557 242.854C546.907 242.821 547.253 242.767 547.594 242.692C547.894 242.623 548.168 242.481 548.386 242.28C548.494 242.178 548.579 242.057 548.635 241.924C548.691 241.791 548.718 241.65 548.713 241.508C548.696 241.364 548.644 241.227 548.561 241.104C548.478 240.981 548.367 240.876 548.236 240.797C547.829 240.53 547.363 240.347 546.871 240.261L544.742 239.737C543.937 239.525 543.295 239.351 542.818 239.189C542.311 239.028 541.818 238.832 541.344 238.603C540.918 238.411 540.537 238.144 540.225 237.818C539.949 237.501 539.736 237.142 539.597 236.758C539.435 236.282 539.356 235.786 539.365 235.287C539.344 234.647 539.513 234.014 539.855 233.454C540.196 232.894 540.696 232.429 541.303 232.108C542.884 231.3 544.703 230.969 546.503 231.161C547.1 231.189 547.693 231.264 548.277 231.385C548.712 231.468 549.14 231.576 549.56 231.709L550.706 232.158C551.041 232.294 551.322 232.52 551.511 232.806C551.687 233.049 551.764 233.34 551.73 233.629C551.701 233.898 551.608 234.158 551.457 234.39C551.378 234.511 551.271 234.615 551.144 234.694C551.016 234.774 550.872 234.827 550.72 234.851C550.358 234.912 549.985 234.882 549.641 234.764C548.633 234.425 547.584 234.199 546.516 234.09C546.121 234.072 545.724 234.072 545.329 234.09C544.933 234.097 544.544 234.191 544.196 234.365C544.049 234.419 543.922 234.512 543.832 234.631C543.742 234.751 543.693 234.893 543.691 235.038C543.683 235.189 543.717 235.34 543.788 235.477C543.86 235.614 543.967 235.733 544.101 235.823C544.515 236.064 544.98 236.226 545.465 236.297L547.567 236.783C548.305 236.945 549.03 237.153 549.737 237.406C550.302 237.611 550.834 237.883 551.32 238.217C551.783 238.545 552.148 238.973 552.385 239.463C552.63 239.996 552.755 240.568 552.753 241.146C552.802 242.102 552.489 243.044 551.866 243.814C551.248 244.557 550.396 245.11 549.423 245.397C548.286 245.747 547.085 245.886 545.888 245.808C543.781 245.774 541.733 245.166 540.006 244.063ZM544.947 228.232C544.939 228.101 544.961 227.971 545.012 227.849C545.062 227.728 545.14 227.617 545.24 227.524C545.341 227.431 545.461 227.359 545.594 227.311C545.727 227.263 545.869 227.241 546.011 227.247C546.282 227.248 546.542 227.347 546.735 227.521C546.844 227.61 546.929 227.72 546.986 227.843C547.043 227.965 547.069 228.098 547.062 228.232V231.784H544.947V228.232ZM545.233 244.961H547.444V248.476C547.457 248.651 547.414 248.826 547.319 248.979C547.225 249.132 547.083 249.256 546.912 249.336C546.748 249.421 546.562 249.466 546.373 249.466C546.184 249.466 545.998 249.421 545.834 249.336C545.659 249.256 545.515 249.131 545.42 248.975C545.325 248.819 545.284 248.641 545.302 248.463L545.233 244.961Z" fill="#263238"/>
<path d="M546.037 243.863C558.134 243.863 567.941 234.906 567.941 223.856C567.941 212.806 558.134 203.849 546.037 203.849C533.94 203.849 524.133 212.806 524.133 223.856C524.133 234.906 533.94 243.863 546.037 243.863Z" fill="white" stroke="#263238" stroke-linecap="round" stroke-linejoin="round"/>
<path d="M546.037 238.728C555.029 238.728 562.319 232.069 562.319 223.856C562.319 215.643 555.029 208.984 546.037 208.984C537.045 208.984 529.756 215.643 529.756 223.856C529.756 232.069 537.045 238.728 546.037 238.728Z" fill="#407BFF" stroke="#263238" stroke-linecap="round" stroke-linejoin="round"/>
<path d="M540.006 229.241C539.74 229.075 539.546 228.827 539.461 228.543C539.362 228.281 539.362 227.995 539.461 227.733C539.551 227.472 539.705 227.234 539.911 227.035C540.121 226.829 540.409 226.705 540.716 226.686C541.081 226.666 541.445 226.739 541.767 226.898L542.34 227.172C542.654 227.321 542.927 227.459 543.159 227.546C543.482 227.673 543.815 227.777 544.155 227.858C544.602 227.962 545.059 228.02 545.52 228.032C545.864 228.07 546.213 228.07 546.557 228.032C546.907 227.999 547.253 227.945 547.594 227.87C547.894 227.802 548.168 227.659 548.386 227.459C548.494 227.356 548.579 227.235 548.635 227.102C548.691 226.97 548.718 226.828 548.713 226.686C548.696 226.543 548.644 226.405 548.561 226.282C548.478 226.159 548.367 226.055 548.236 225.975C547.829 225.709 547.363 225.526 546.871 225.439L544.742 224.916C543.937 224.704 543.295 224.529 542.818 224.367C542.311 224.207 541.818 224.011 541.344 223.781C540.918 223.589 540.537 223.322 540.225 222.996C539.949 222.679 539.736 222.321 539.597 221.936C539.435 221.46 539.356 220.964 539.365 220.465C539.344 219.825 539.513 219.192 539.855 218.632C540.196 218.073 540.696 217.608 541.303 217.287C542.884 216.478 544.703 216.147 546.503 216.339C547.101 216.362 547.695 216.437 548.277 216.564C548.712 216.646 549.14 216.755 549.56 216.888L550.706 217.336C551.041 217.472 551.322 217.698 551.511 217.985C551.687 218.227 551.764 218.518 551.73 218.807C551.701 219.076 551.608 219.336 551.457 219.568C551.378 219.689 551.271 219.793 551.144 219.872C551.016 219.952 550.872 220.006 550.72 220.029C550.358 220.09 549.985 220.06 549.641 219.942C548.633 219.604 547.584 219.378 546.516 219.269C546.121 219.25 545.724 219.25 545.329 219.269C544.933 219.275 544.544 219.369 544.196 219.543C544.049 219.597 543.922 219.69 543.832 219.81C543.742 219.929 543.693 220.071 543.691 220.216C543.683 220.368 543.717 220.519 543.788 220.656C543.86 220.793 543.967 220.911 544.101 221.001C544.515 221.243 544.98 221.404 545.465 221.475L547.567 221.961C548.305 222.123 549.03 222.332 549.737 222.585C550.302 222.789 550.834 223.062 551.32 223.395C551.783 223.723 552.148 224.152 552.385 224.641C552.63 225.174 552.755 225.746 552.753 226.324C552.802 227.28 552.489 228.222 551.866 228.992C551.244 229.731 550.393 230.283 549.423 230.575C548.286 230.925 547.085 231.065 545.888 230.986C543.781 230.952 541.733 230.345 540.006 229.241ZM544.947 213.41C544.939 213.28 544.961 213.15 545.012 213.028C545.062 212.906 545.14 212.795 545.24 212.702C545.341 212.61 545.461 212.537 545.594 212.489C545.727 212.441 545.869 212.42 546.011 212.425C546.282 212.427 546.542 212.525 546.735 212.699C546.844 212.788 546.929 212.898 546.986 213.021C547.043 213.144 547.069 213.277 547.062 213.41V216.963H544.947V213.41ZM545.233 230.139H547.444V233.654C547.457 233.829 547.414 234.004 547.319 234.157C547.225 234.31 547.083 234.434 546.912 234.514C546.748 234.599 546.562 234.644 546.373 234.644C546.184 234.644 545.998 234.599 545.834 234.514C545.659 234.435 545.515 234.309 545.42 234.153C545.325 233.997 545.284 233.819 545.302 233.642L545.233 230.139Z" fill="#263238"/>
<path d="M546.037 217.312C558.134 217.312 567.941 208.354 567.941 197.304C567.941 186.254 558.134 177.297 546.037 177.297C533.94 177.297 524.133 186.254 524.133 197.304C524.133 208.354 533.94 217.312 546.037 217.312Z" fill="white" stroke="#263238" stroke-linecap="round" stroke-linejoin="round"/>
<path d="M557.55 207.823C563.908 202.016 563.908 192.599 557.55 186.792C551.191 180.984 540.883 180.984 534.524 186.792C528.166 192.599 528.166 202.016 534.524 207.823C540.883 213.631 551.191 213.631 557.55 207.823Z" fill="#407BFF" stroke="#263238" stroke-linecap="round" stroke-linejoin="round"/>
<path d="M540.006 202.689C539.74 202.523 539.546 202.276 539.461 201.991C539.362 201.729 539.362 201.444 539.461 201.181C539.551 200.92 539.705 200.682 539.911 200.483C540.121 200.278 540.409 200.153 540.716 200.134C541.081 200.114 541.445 200.187 541.767 200.346L542.34 200.62C542.654 200.77 542.927 200.907 543.159 200.994C543.482 201.121 543.815 201.225 544.155 201.306C544.602 201.41 545.059 201.469 545.52 201.48C545.864 201.518 546.213 201.518 546.557 201.48C546.907 201.447 547.253 201.393 547.594 201.318C547.894 201.25 548.168 201.107 548.386 200.907C548.494 200.804 548.579 200.683 548.635 200.55C548.691 200.418 548.718 200.276 548.713 200.134C548.696 199.991 548.644 199.853 548.561 199.73C548.478 199.607 548.367 199.503 548.236 199.423C547.829 199.157 547.363 198.974 546.871 198.887L544.742 198.364C543.937 198.152 543.295 197.977 542.818 197.815C542.311 197.655 541.818 197.459 541.344 197.229C540.918 197.038 540.537 196.771 540.225 196.444C539.949 196.127 539.736 195.769 539.597 195.384C539.435 194.908 539.356 194.412 539.365 193.913C539.344 193.273 539.513 192.64 539.855 192.08C540.196 191.521 540.696 191.056 541.303 190.735C542.884 189.927 544.703 189.595 546.503 189.787C547.101 189.81 547.695 189.885 548.277 190.012C548.712 190.095 549.14 190.203 549.56 190.336L550.706 190.785C551.041 190.92 551.322 191.147 551.511 191.433C551.687 191.675 551.764 191.966 551.73 192.256C551.701 192.524 551.608 192.784 551.457 193.016C551.378 193.137 551.271 193.241 551.144 193.321C551.016 193.4 550.872 193.454 550.72 193.477C550.358 193.538 549.985 193.508 549.641 193.39C548.633 193.052 547.584 192.826 546.516 192.717C546.121 192.698 545.724 192.698 545.329 192.717C544.933 192.723 544.544 192.817 544.196 192.991C544.049 193.045 543.922 193.138 543.832 193.258C543.742 193.378 543.693 193.519 543.691 193.664C543.683 193.816 543.717 193.967 543.788 194.104C543.86 194.241 543.967 194.359 544.101 194.45C544.515 194.691 544.98 194.852 545.465 194.923L547.567 195.409C548.305 195.572 549.03 195.78 549.737 196.033C550.302 196.237 550.834 196.51 551.32 196.843C551.783 197.171 552.148 197.6 552.385 198.089C552.63 198.622 552.755 199.194 552.753 199.772C552.802 200.728 552.489 201.67 551.866 202.44C551.244 203.18 550.393 203.731 549.423 204.023C548.286 204.373 547.085 204.513 545.888 204.435C543.781 204.4 541.733 203.793 540.006 202.689ZM544.947 186.858C544.939 186.728 544.961 186.598 545.012 186.476C545.062 186.354 545.14 186.243 545.24 186.15C545.341 186.058 545.461 185.985 545.594 185.937C545.727 185.89 545.869 185.868 546.011 185.873C546.282 185.875 546.542 185.973 546.735 186.147C546.844 186.236 546.929 186.346 546.986 186.469C547.043 186.592 547.069 186.725 547.062 186.858V190.411H544.947V186.858ZM545.233 203.587H547.444V207.102C547.457 207.277 547.414 207.452 547.319 207.605C547.225 207.758 547.083 207.882 546.912 207.962C546.748 208.048 546.562 208.092 546.373 208.092C546.184 208.092 545.998 208.048 545.834 207.962C545.659 207.883 545.515 207.757 545.42 207.601C545.325 207.445 545.284 207.267 545.302 207.09L545.233 203.587Z" fill="#263238"/>
<path d="M498.212 267.149C498.212 267.149 496.848 275.801 495.961 275.875L491.457 275.975C491.457 275.975 489.997 280.725 486.899 282.844C483.801 284.963 479.283 283.617 476.991 282.021C475.466 280.897 474.091 279.613 472.896 278.194C472.896 278.194 492.098 265.217 498.212 267.149Z" fill="white" stroke="#263238" stroke-miterlimit="10"/>
<path d="M481.579 358.872C481.579 358.872 507.291 362.462 509.092 362.424C510.894 362.387 518.468 359.557 520.706 359.109C522.944 358.66 528.021 354.845 528.021 354.845L505.762 355.095L480.951 342.866L481.579 358.872Z" fill="#263238" stroke="#263238" stroke-miterlimit="10"/>
<path d="M520.705 359.109C522.943 358.648 528.02 354.845 528.02 354.845L505.761 355.095C504.833 355.404 504.038 355.976 503.49 356.727C502.943 357.479 502.672 358.37 502.718 359.271C502.827 359.826 503.064 360.354 503.412 360.82C503.76 361.287 504.212 361.68 504.738 361.976C507.03 362.251 508.682 362.438 509.091 362.425C510.893 362.388 518.467 359.558 520.705 359.109Z" fill="white" stroke="#263238" stroke-miterlimit="10"/>
<path d="M448.14 388.939C448.14 388.939 449.873 431.921 450.05 438.876C450.228 445.832 441.944 461.489 442.899 472.534C443.854 483.578 445.164 508.223 445.164 508.223L454.513 508.036C455.496 503.309 456.767 498.635 458.321 494.037C461.652 484.214 463.843 474.099 464.858 463.858C465.636 453.399 470.112 423.905 465.881 406.902C461.651 389.899 455.919 381.497 451.442 382.532C446.966 383.566 448.14 388.939 448.14 388.939Z" fill="#3B3B3B" stroke="#263238" stroke-miterlimit="10"/>
<path d="M442.353 365.017C442.353 365.017 439.897 377.72 443.172 384.302C446.447 390.884 451.715 408.161 454.731 418.221C457.747 428.281 458.361 439.014 455.468 448.251C452.575 457.488 454.608 469.443 456.915 479.216C459.221 488.989 462.824 509.457 462.824 509.457L471.477 509.283C471.477 509.283 475.353 469.393 477.536 459.819C480.211 447.379 481.759 434.758 482.163 422.085C482.531 408.797 481.439 378.455 481.439 378.455L481.876 368.009L442.353 365.017Z" fill="#666666" stroke="#263238" stroke-miterlimit="10"/>
<path d="M454.544 507.874C454.544 507.874 456.96 509.545 458.775 510.754C460.59 511.963 468.505 513.16 468.997 513.472C469.537 513.878 470.035 514.329 470.484 514.818V515.579H443.435C443.435 515.579 442.562 510.592 445.032 508.099L445.196 507.924L454.544 507.874Z" fill="white" stroke="#263238" stroke-miterlimit="10"/>
<path d="M443.295 514.232H469.921C470.235 514.531 470.481 514.793 470.481 514.793V515.554H443.431C443.36 515.116 443.315 514.674 443.295 514.232Z" fill="white" stroke="#263238" stroke-miterlimit="10"/>
<path d="M471.505 509.245C471.505 509.245 479.229 513.733 483.515 514.481C487.8 515.229 490.939 516.601 491.103 517.199C491.266 517.798 462.566 517.199 462.566 517.199C462.566 517.199 461.57 517.199 461.57 514.182C461.511 512.517 461.955 510.87 462.852 509.42L471.505 509.245Z" fill="white" stroke="#263238" stroke-miterlimit="10"/>
<path d="M462.569 517.237C462.569 517.237 461.982 517.237 461.709 515.815H488.526C490.055 516.364 491.024 516.912 491.106 517.237C491.269 517.835 462.569 517.237 462.569 517.237Z" fill="white" stroke="#263238" stroke-miterlimit="10"/>
<path d="M498.527 247.117C498.527 247.117 507.561 259.52 509.977 261.627C512.392 263.734 497.053 269.555 491.061 271.836C485.07 274.118 473.129 280.799 472.16 282.345C471.191 283.891 474.289 286.907 477.073 290.847C479.857 294.786 482.846 306.69 483.351 314.045C483.856 321.4 482.545 335.86 484.06 342.891C485.575 349.921 485.903 363.397 486.026 365.267C485.872 366.644 485.384 367.973 484.598 369.157C483.812 370.34 482.747 371.349 481.481 372.11C478.82 373.357 456.574 370.465 448.809 369.405C441.044 368.346 439.747 369.891 439.338 366.526C438.928 363.16 441.166 358.809 441.098 356.055C441.03 353.3 437.222 321.749 436.39 314.693C435.75 307.775 437.673 300.861 441.849 295.06C443.814 292.255 446.544 290.173 448.673 287.581C449.642 286.421 453.449 282.482 453.272 280.899C452.542 273.545 452.588 266.143 453.408 258.797C454.773 248.326 461.31 238.378 470.686 236.957C476.987 235.887 483.498 236.723 489.233 239.338C492.999 240.784 498.527 247.117 498.527 247.117Z" fill="#263238" stroke="#263238" stroke-miterlimit="10"/>
<path d="M450.312 303.649C450.312 303.649 444.785 307.463 444.935 313.409C445.085 319.356 452.796 349.56 453.983 352.664C455.17 355.768 460.37 356.017 461.503 356.404C462.635 356.79 506.989 341.096 506.989 341.096C506.989 341.096 512.244 344.474 514.277 344.437L521.906 344.287C521.906 344.287 524.24 347.727 524.922 347.715C525.604 347.703 525.332 346.057 525.072 344.835C524.813 343.614 523.626 340.547 523.626 340.547C523.626 340.547 517.471 337.181 514.536 336.633C511.602 336.085 508.422 335.112 506.635 335.561C504.847 336.01 468.995 341.258 468.995 341.258C468.995 341.258 469.814 319.256 469.241 314.544C468.667 309.832 466.511 304.958 462.417 304.21" fill="#263238"/>
<path d="M450.312 303.649C450.312 303.649 444.785 307.463 444.935 313.409C445.085 319.356 452.796 349.56 453.983 352.664C455.17 355.768 460.37 356.017 461.503 356.404C462.635 356.79 506.989 341.096 506.989 341.096C506.989 341.096 512.244 344.474 514.277 344.437L521.906 344.287C521.906 344.287 524.24 347.727 524.922 347.715C525.604 347.703 525.332 346.057 525.072 344.835C524.813 343.614 523.626 340.547 523.626 340.547C523.626 340.547 517.471 337.181 514.536 336.633C511.602 336.085 508.422 335.112 506.635 335.561C504.847 336.01 468.995 341.258 468.995 341.258C468.995 341.258 469.814 319.256 469.241 314.544C468.667 309.832 466.511 304.958 462.417 304.21" stroke="#263238" stroke-miterlimit="10"/>
<path d="M476.199 352.377C476.199 352.377 461.323 357.052 457.092 357.052C452.862 357.052 449.655 349.398 449.655 343.452C449.655 337.506 445.465 318.383 445.465 312.013C445.465 305.643 451.511 301.816 451.511 301.816" stroke="#666666" stroke-miterlimit="10"/>
<path d="M465.037 306.915C465.037 306.915 469.691 310.729 468.763 320.502C468.299 325.339 468.995 341.27 468.995 341.27L480.39 338.777" stroke="#666666" stroke-miterlimit="10"/>
<path d="M514.274 344.449L521.903 344.299C521.903 344.299 524.236 347.74 524.919 347.728C525.601 347.715 525.328 346.07 525.069 344.848C524.81 343.626 523.622 340.56 523.622 340.56C523.622 340.56 517.467 337.194 514.533 336.646C511.599 336.097 508.419 335.125 506.631 335.573C506.154 335.686 503.247 336.147 499.262 336.758L500.818 343.277L506.986 341.108C506.986 341.108 512.24 344.486 514.274 344.449Z" fill="white" stroke="#263238" stroke-miterlimit="10"/>
<path d="M542.957 316.883L540.549 316.382L531.263 353.624L533.672 354.125L542.957 316.883Z" fill="#407BFF" stroke="#263238" stroke-miterlimit="10"/>
<path d="M534.044 352.45L483.93 353.473L483.985 355.73L534.099 354.707L534.044 352.45Z" fill="#407BFF" stroke="#263238" stroke-miterlimit="10"/>
<path d="M545.506 301.804L556.219 279.428H534.793L545.506 301.804Z" fill="#263238"/>
<path d="M311.619 480.998V451.342H213.944V480.998C213.93 490.705 210.269 500.113 203.572 507.65L199.287 512.486H326.208L321.936 507.65C315.26 500.106 311.618 490.699 311.619 480.998Z" fill="white"/>
<path d="M207.955 470.502H317.612C313.691 464.166 311.627 457.013 311.621 449.734V420.078H213.946V449.734C213.94 457.013 211.876 464.166 207.955 470.502Z" fill="#263238"/>
<path d="M311.619 480.998V451.342H213.944V480.998C213.93 490.705 210.269 500.113 203.572 507.65L199.287 512.486H326.208L321.936 507.65C315.26 500.106 311.618 490.699 311.619 480.998V480.998Z" stroke="#263238" stroke-linecap="round" stroke-linejoin="round"/>
<path d="M447.479 197.416H78.0711C71.6795 197.416 66.498 202.149 66.498 207.987V450.121C66.498 455.959 71.6795 460.691 78.0711 460.691H447.479C453.871 460.691 459.052 455.959 459.052 450.121V207.987C459.052 202.149 453.871 197.416 447.479 197.416Z" fill="#263238" stroke="#263238" stroke-linecap="round" stroke-linejoin="round"/>
<path d="M66.498 419.767H459.052V450.108C459.052 452.912 457.833 455.6 455.663 457.583C453.492 459.565 450.549 460.679 447.479 460.679H78.0847C75.0154 460.679 72.0717 459.565 69.9014 457.583C67.731 455.6 66.5117 452.912 66.5117 450.108V419.767H66.498Z" fill="white" stroke="#263238" stroke-linecap="round" stroke-linejoin="round"/>
<path d="M439.305 213.796H86.2461V399.797H439.305V213.796Z" fill="#407BFF" stroke="white" stroke-linecap="round" stroke-linejoin="round"/>
<path d="M326.29 512.486H199.287V517.787H326.29V512.486Z" fill="white" stroke="#263238" stroke-linecap="round" stroke-linejoin="round"/>
<path d="M140.495 252.552L146.786 229.191H127.707L140.495 252.552Z" fill="white" stroke="#263238" stroke-linecap="round" stroke-linejoin="round"/>
<path d="M140.494 252.552L141.9 230.076H129.754L140.494 252.552Z" fill="#407BFF" stroke="#263238" stroke-linecap="round" stroke-linejoin="round"/>
<path d="M140.495 252.552L139.199 228.331H127.066L140.495 252.552Z" fill="#407BFF" stroke="#263238" stroke-linecap="round" stroke-linejoin="round"/>
<path d="M117.842 227.209L114.703 223.968H98.2305L105.955 252.552H140.497L135.024 227.209H117.842Z" fill="white" stroke="#263238" stroke-linecap="round" stroke-linejoin="round"/>
<path d="M140.495 294.823L146.786 271.462H127.707L140.495 294.823Z" fill="white" stroke="#263238" stroke-linecap="round" stroke-linejoin="round"/>
<path d="M140.494 294.823L141.9 272.348H129.754L140.494 294.823Z" fill="#407BFF" stroke="#263238" stroke-linecap="round" stroke-linejoin="round"/>
<path d="M140.495 294.823L139.199 270.602H127.066L140.495 294.823Z" fill="#407BFF" stroke="#263238" stroke-linecap="round" stroke-linejoin="round"/>
<path d="M117.842 269.48L114.703 266.239H98.2305L105.955 294.823H140.497L135.024 269.48H117.842Z" fill="white" stroke="#263238" stroke-linecap="round" stroke-linejoin="round"/>
<path d="M140.495 337.094L146.786 313.734H127.707L140.495 337.094Z" fill="white" stroke="#263238" stroke-linecap="round" stroke-linejoin="round"/>
<path d="M140.494 337.094L141.9 314.619H129.754L140.494 337.094Z" fill="#407BFF" stroke="#263238" stroke-linecap="round" stroke-linejoin="round"/>
<path d="M140.495 337.094L139.199 312.861H127.066L140.495 337.094Z" fill="#407BFF" stroke="#263238" stroke-linecap="round" stroke-linejoin="round"/>
<path d="M117.842 311.751L114.703 308.51H98.2305L105.955 337.094H140.497L135.024 311.751H117.842Z" fill="white" stroke="#263238" stroke-linecap="round" stroke-linejoin="round"/>
<path d="M424.006 352.514L430.284 329.154H411.205L424.006 352.514Z" fill="white" stroke="#263238" stroke-linecap="round" stroke-linejoin="round"/>
<path d="M424.006 352.514L425.398 330.039H413.266L424.006 352.514Z" fill="#407BFF" stroke="#263238" stroke-linecap="round" stroke-linejoin="round"/>
<path d="M424.007 352.514L422.711 328.281H410.564L424.007 352.514Z" fill="#407BFF" stroke="#263238" stroke-linecap="round" stroke-linejoin="round"/>
<path d="M401.336 327.172L398.197 323.931H381.725L389.449 352.514H424.004L418.518 327.172H401.336Z" fill="white" stroke="#263238" stroke-linecap="round" stroke-linejoin="round"/>
<path d="M424.006 252.253L430.284 228.88H411.205L424.006 252.253Z" fill="white" stroke="#263238" stroke-linecap="round" stroke-linejoin="round"/>
<path d="M424.006 252.253L425.398 229.765H413.266L424.006 252.253Z" fill="#407BFF" stroke="#263238" stroke-linecap="round" stroke-linejoin="round"/>
<path d="M424.007 252.253L422.711 228.02H410.564L424.007 252.253Z" fill="#407BFF" stroke="#263238" stroke-linecap="round" stroke-linejoin="round"/>
<path d="M401.336 226.898L398.197 223.669H381.725L389.449 252.253H424.004L418.518 226.898H401.336Z" fill="white" stroke="#263238" stroke-linecap="round" stroke-linejoin="round"/>
<path d="M424.006 392.816L430.284 369.455H411.205L424.006 392.816Z" fill="white" stroke="#263238" stroke-linecap="round" stroke-linejoin="round"/>
<path d="M424.006 392.816L425.398 370.34H413.266L424.006 392.816Z" fill="#407BFF" stroke="#263238" stroke-linecap="round" stroke-linejoin="round"/>
<path d="M424.007 392.816L422.711 368.595H410.564L424.007 392.816Z" fill="#407BFF" stroke="#263238" stroke-linecap="round" stroke-linejoin="round"/>
<path d="M401.336 367.473L398.197 364.232H381.725L389.449 392.816H424.004L418.518 367.473H401.336Z" fill="white" stroke="#263238" stroke-linecap="round" stroke-linejoin="round"/>
<path d="M287.533 335.299H286.168V259.657H317.421V228.718H318.785V260.904H287.533V335.299Z" fill="white"/>
<path d="M299.746 228.718H298.381V259.932H299.746V228.718Z" fill="white"/>
<path d="M320.122 228.768C320.124 229.134 320.008 229.492 319.788 229.797C319.568 230.102 319.253 230.341 318.884 230.483C318.515 230.624 318.109 230.662 317.716 230.593C317.324 230.523 316.962 230.348 316.678 230.09C316.395 229.833 316.201 229.504 316.122 229.146C316.043 228.787 316.082 228.415 316.234 228.077C316.387 227.739 316.646 227.45 316.978 227.247C317.311 227.044 317.702 226.935 318.102 226.935C318.635 226.935 319.147 227.128 319.525 227.471C319.904 227.815 320.118 228.281 320.122 228.768Z" fill="white"/>
<path d="M318.169 231.188C317.629 231.188 317.101 231.042 316.653 230.768C316.204 230.494 315.854 230.104 315.647 229.648C315.441 229.193 315.387 228.691 315.492 228.207C315.597 227.723 315.857 227.279 316.239 226.93C316.621 226.581 317.107 226.344 317.636 226.247C318.166 226.151 318.715 226.201 319.213 226.389C319.712 226.578 320.138 226.898 320.438 227.308C320.738 227.718 320.898 228.201 320.898 228.694C320.898 229.355 320.611 229.99 320.099 230.458C319.587 230.925 318.893 231.188 318.169 231.188ZM318.169 227.509C317.867 227.572 317.598 227.726 317.405 227.947C317.212 228.168 317.107 228.442 317.107 228.725C317.107 229.008 317.212 229.282 317.405 229.503C317.598 229.724 317.867 229.878 318.169 229.941C318.369 229.983 318.576 229.983 318.776 229.941C318.976 229.899 319.163 229.817 319.323 229.7C319.484 229.583 319.613 229.435 319.702 229.266C319.791 229.097 319.837 228.912 319.837 228.725C319.837 228.538 319.791 228.353 319.702 228.184C319.613 228.015 319.484 227.867 319.323 227.75C319.163 227.633 318.976 227.551 318.776 227.509C318.576 227.467 318.369 227.467 318.169 227.509Z" fill="white"/>
<path d="M301.153 228.768C301.156 229.134 301.039 229.493 300.818 229.799C300.597 230.104 300.282 230.343 299.912 230.484C299.543 230.625 299.135 230.663 298.742 230.592C298.349 230.521 297.988 230.345 297.705 230.086C297.422 229.827 297.229 229.497 297.151 229.138C297.074 228.779 297.115 228.406 297.27 228.069C297.424 227.731 297.685 227.443 298.019 227.241C298.354 227.039 298.746 226.933 299.147 226.935C299.679 226.935 300.189 227.128 300.565 227.472C300.941 227.816 301.153 228.282 301.153 228.768Z" fill="white"/>
<path d="M299.144 231.188C298.604 231.188 298.076 231.042 297.627 230.768C297.178 230.494 296.828 230.104 296.622 229.648C296.415 229.193 296.361 228.691 296.467 228.207C296.572 227.723 296.832 227.279 297.214 226.93C297.595 226.581 298.082 226.344 298.611 226.247C299.141 226.151 299.689 226.201 300.188 226.389C300.687 226.578 301.113 226.898 301.413 227.308C301.713 227.718 301.873 228.201 301.873 228.694C301.873 229.355 301.585 229.99 301.074 230.458C300.562 230.925 299.867 231.188 299.144 231.188ZM299.144 227.509C298.874 227.509 298.61 227.582 298.385 227.719C298.161 227.856 297.986 228.051 297.883 228.279C297.779 228.507 297.752 228.758 297.805 229C297.858 229.241 297.988 229.464 298.179 229.638C298.369 229.813 298.613 229.931 298.877 229.979C299.142 230.028 299.416 230.003 299.666 229.908C299.915 229.814 300.128 229.654 300.278 229.449C300.428 229.244 300.508 229.003 300.508 228.756C300.505 228.428 300.359 228.114 300.104 227.882C299.848 227.651 299.503 227.521 299.144 227.522V227.509Z" fill="white"/>
<path d="M239.124 292.579H237.76V261.914L227.879 252.889V230.089H229.244V252.378L239.124 261.39V292.579Z" fill="white"/>
<path d="M230.592 229.155C230.595 229.521 230.479 229.88 230.258 230.185C230.037 230.491 229.721 230.729 229.352 230.87C228.982 231.012 228.575 231.049 228.182 230.978C227.789 230.908 227.428 230.732 227.144 230.473C226.861 230.214 226.668 229.884 226.591 229.524C226.513 229.165 226.555 228.793 226.709 228.455C226.864 228.117 227.125 227.829 227.459 227.627C227.793 227.426 228.186 227.319 228.586 227.322C229.118 227.322 229.629 227.515 230.005 227.859C230.381 228.202 230.592 228.669 230.592 229.155Z" fill="white"/>
<path d="M228.587 231.625C228.047 231.625 227.519 231.478 227.07 231.204C226.622 230.93 226.272 230.541 226.065 230.085C225.859 229.629 225.805 229.128 225.91 228.644C226.015 228.16 226.275 227.715 226.657 227.366C227.039 227.018 227.525 226.78 228.054 226.684C228.584 226.588 229.133 226.637 229.631 226.826C230.13 227.015 230.556 227.334 230.856 227.744C231.156 228.155 231.316 228.637 231.316 229.13C231.316 229.792 231.029 230.426 230.517 230.894C230.005 231.362 229.311 231.625 228.587 231.625ZM228.587 227.945C228.317 227.945 228.053 228.019 227.829 228.156C227.604 228.293 227.429 228.487 227.326 228.715C227.223 228.943 227.196 229.194 227.248 229.436C227.301 229.678 227.431 229.9 227.622 230.075C227.813 230.249 228.056 230.368 228.321 230.416C228.585 230.464 228.86 230.439 229.109 230.345C229.359 230.25 229.572 230.091 229.722 229.886C229.872 229.68 229.952 229.439 229.952 229.193C229.952 228.862 229.808 228.545 229.552 228.311C229.296 228.077 228.949 227.945 228.587 227.945Z" fill="white"/>
<path d="M237.964 306.666H211.187V287.979H175.199V286.733H212.552V305.419H237.964V306.666Z" fill="white"/>
<path d="M175.2 289.191C176.308 289.191 177.206 288.37 177.206 287.357C177.206 286.345 176.308 285.524 175.2 285.524C174.092 285.524 173.193 286.345 173.193 287.357C173.193 288.37 174.092 289.191 175.2 289.191Z" fill="white"/>
<path d="M175.2 289.852C174.66 289.852 174.133 289.706 173.684 289.432C173.235 289.157 172.885 288.768 172.678 288.312C172.472 287.856 172.418 287.355 172.523 286.871C172.628 286.387 172.888 285.943 173.27 285.594C173.652 285.245 174.138 285.007 174.668 284.911C175.197 284.815 175.746 284.864 176.245 285.053C176.743 285.242 177.17 285.562 177.47 285.972C177.77 286.382 177.93 286.864 177.93 287.358C177.93 288.019 177.642 288.654 177.13 289.121C176.618 289.589 175.924 289.852 175.2 289.852ZM175.2 286.11C174.93 286.11 174.666 286.183 174.442 286.321C174.218 286.458 174.043 286.652 173.939 286.88C173.836 287.108 173.809 287.359 173.862 287.601C173.914 287.843 174.044 288.065 174.235 288.239C174.426 288.414 174.669 288.533 174.934 288.581C175.199 288.629 175.473 288.604 175.722 288.51C175.972 288.415 176.185 288.256 176.335 288.05C176.485 287.845 176.565 287.604 176.565 287.358C176.565 287.027 176.421 286.71 176.165 286.476C175.909 286.242 175.562 286.11 175.2 286.11Z" fill="white"/>
<path d="M304.44 332.731H166.942V312.761H137.996V311.515H168.307V331.485H304.44V332.731Z" fill="white"/>
<path d="M140.069 312.076C140.072 312.443 139.955 312.801 139.734 313.107C139.513 313.412 139.198 313.651 138.828 313.792C138.459 313.933 138.051 313.971 137.658 313.9C137.265 313.829 136.904 313.653 136.621 313.394C136.338 313.135 136.145 312.805 136.067 312.446C135.99 312.087 136.031 311.715 136.186 311.377C136.34 311.039 136.601 310.751 136.935 310.549C137.27 310.347 137.662 310.241 138.063 310.243C138.595 310.243 139.105 310.436 139.481 310.78C139.858 311.124 140.069 311.59 140.069 312.076Z" fill="white"/>
<path d="M138.024 314.534C137.485 314.534 136.957 314.388 136.508 314.114C136.059 313.84 135.709 313.45 135.503 312.994C135.296 312.538 135.242 312.037 135.347 311.553C135.453 311.069 135.713 310.625 136.094 310.276C136.476 309.927 136.962 309.689 137.492 309.593C138.021 309.497 138.57 309.546 139.069 309.735C139.568 309.924 139.994 310.244 140.294 310.654C140.594 311.064 140.754 311.546 140.754 312.04C140.754 312.701 140.466 313.336 139.954 313.803C139.443 314.271 138.748 314.534 138.024 314.534ZM138.024 310.867C137.754 310.867 137.491 310.94 137.266 311.077C137.042 311.214 136.867 311.409 136.764 311.637C136.66 311.865 136.633 312.116 136.686 312.358C136.739 312.6 136.869 312.822 137.059 312.996C137.25 313.171 137.493 313.29 137.758 313.338C138.023 313.386 138.297 313.361 138.547 313.267C138.796 313.172 139.009 313.012 139.159 312.807C139.309 312.602 139.389 312.361 139.389 312.114C139.389 311.784 139.245 311.466 138.989 311.232C138.733 310.999 138.386 310.867 138.024 310.867Z" fill="white"/>
<path d="M230.171 379.665H194.934V378.418H228.806V359.732H240.789V343.601H242.154V360.978H230.171V379.665Z" fill="white"/>
<path d="M197.114 378.693C197.114 379.058 196.995 379.415 196.773 379.719C196.552 380.022 196.236 380.259 195.867 380.399C195.498 380.538 195.092 380.575 194.7 380.504C194.308 380.432 193.948 380.257 193.666 379.998C193.383 379.74 193.191 379.411 193.113 379.053C193.035 378.695 193.075 378.324 193.228 377.987C193.381 377.649 193.64 377.361 193.972 377.158C194.304 376.956 194.695 376.847 195.094 376.847C195.36 376.846 195.623 376.892 195.869 376.984C196.115 377.077 196.338 377.213 196.526 377.384C196.714 377.556 196.863 377.76 196.964 377.985C197.065 378.21 197.116 378.45 197.114 378.693Z" fill="white"/>
<path d="M195.101 381.151C194.561 381.151 194.033 381.004 193.584 380.73C193.135 380.456 192.785 380.067 192.579 379.611C192.372 379.155 192.318 378.653 192.424 378.17C192.529 377.686 192.789 377.241 193.171 376.892C193.552 376.544 194.039 376.306 194.568 376.21C195.098 376.114 195.646 376.163 196.145 376.352C196.644 376.541 197.07 376.86 197.37 377.27C197.67 377.681 197.83 378.163 197.83 378.656C197.83 379.318 197.542 379.952 197.031 380.42C196.519 380.888 195.824 381.151 195.101 381.151ZM195.101 377.471C194.831 377.471 194.567 377.545 194.342 377.682C194.118 377.819 193.943 378.013 193.84 378.241C193.736 378.469 193.709 378.72 193.762 378.962C193.815 379.204 193.945 379.426 194.136 379.601C194.326 379.775 194.57 379.894 194.834 379.942C195.099 379.99 195.373 379.965 195.623 379.871C195.872 379.776 196.085 379.617 196.235 379.412C196.385 379.206 196.465 378.965 196.465 378.719C196.465 378.388 196.322 378.071 196.066 377.837C195.81 377.603 195.463 377.471 195.101 377.471Z" fill="white"/>
<path d="M328.54 379.665H293.303V360.978H281.32V343.601H282.685V359.732H294.667V378.418H328.54V379.665Z" fill="white"/>
<path d="M326.357 378.693C326.357 379.059 326.476 379.416 326.699 379.72C326.921 380.024 327.238 380.26 327.608 380.4C327.977 380.539 328.384 380.575 328.776 380.503C329.169 380.43 329.528 380.253 329.81 379.994C330.092 379.735 330.284 379.404 330.36 379.046C330.436 378.687 330.394 378.315 330.239 377.978C330.084 377.641 329.823 377.354 329.489 377.152C329.156 376.951 328.764 376.845 328.364 376.847C328.099 376.847 327.837 376.895 327.593 376.988C327.348 377.081 327.127 377.217 326.94 377.389C326.754 377.56 326.606 377.764 326.506 377.988C326.406 378.212 326.356 378.451 326.357 378.693Z" fill="white"/>
<path d="M328.366 381.151C327.826 381.151 327.299 381.004 326.85 380.73C326.401 380.456 326.051 380.067 325.845 379.611C325.638 379.155 325.584 378.653 325.689 378.17C325.794 377.686 326.054 377.241 326.436 376.892C326.818 376.544 327.304 376.306 327.834 376.21C328.363 376.114 328.912 376.163 329.411 376.352C329.91 376.541 330.336 376.86 330.636 377.27C330.936 377.681 331.096 378.163 331.096 378.656C331.096 379.318 330.808 379.952 330.296 380.42C329.784 380.888 329.09 381.151 328.366 381.151ZM328.366 377.471C328.096 377.471 327.832 377.545 327.608 377.682C327.384 377.819 327.209 378.013 327.105 378.241C327.002 378.469 326.975 378.72 327.028 378.962C327.08 379.204 327.21 379.426 327.401 379.601C327.592 379.775 327.835 379.894 328.1 379.942C328.365 379.99 328.639 379.965 328.888 379.871C329.138 379.776 329.351 379.617 329.501 379.412C329.651 379.206 329.731 378.965 329.731 378.719C329.731 378.388 329.587 378.071 329.331 377.837C329.075 377.603 328.728 377.471 328.366 377.471Z" fill="white"/>
<path d="M324.462 320.253H299.105V319.007H323.098V304.185H339.324V295.808H354.118V297.054H340.689V305.431H324.462V320.253Z" fill="white"/>
<path d="M357.065 296.083C357.062 296.445 356.942 296.798 356.72 297.098C356.498 297.398 356.184 297.631 355.817 297.768C355.45 297.905 355.047 297.939 354.659 297.867C354.271 297.795 353.915 297.62 353.636 297.363C353.356 297.106 353.167 296.779 353.09 296.424C353.014 296.069 353.055 295.701 353.207 295.366C353.359 295.032 353.616 294.746 353.946 294.545C354.275 294.345 354.663 294.237 355.059 294.237C355.323 294.237 355.585 294.285 355.83 294.378C356.074 294.471 356.296 294.607 356.482 294.779C356.669 294.95 356.816 295.154 356.916 295.378C357.016 295.602 357.067 295.841 357.065 296.083Z" fill="white"/>
<path d="M355.019 298.503C354.479 298.503 353.951 298.357 353.502 298.083C353.053 297.808 352.703 297.419 352.497 296.963C352.29 296.507 352.236 296.006 352.342 295.522C352.447 295.038 352.707 294.594 353.089 294.245C353.47 293.896 353.957 293.658 354.486 293.562C355.016 293.466 355.564 293.515 356.063 293.704C356.562 293.893 356.988 294.213 357.288 294.623C357.588 295.033 357.748 295.515 357.748 296.009C357.748 296.67 357.46 297.305 356.949 297.772C356.437 298.24 355.742 298.503 355.019 298.503ZM355.019 294.824C354.749 294.824 354.485 294.897 354.26 295.034C354.036 295.171 353.861 295.366 353.758 295.594C353.654 295.822 353.627 296.072 353.68 296.314C353.733 296.556 353.863 296.778 354.054 296.953C354.244 297.127 354.488 297.246 354.752 297.294C355.017 297.342 355.291 297.318 355.541 297.223C355.79 297.129 356.003 296.969 356.153 296.764C356.303 296.559 356.383 296.318 356.383 296.071C356.38 295.742 356.234 295.428 355.979 295.197C355.723 294.966 355.378 294.836 355.019 294.836V294.824Z" fill="white"/>
<path d="M377.469 353.449H376.104V345.06H357.066V334.103H313.312V332.856H358.431V343.813H377.469V353.449Z" fill="white"/>
<path d="M376.852 356.48C376.452 356.48 376.061 356.372 375.728 356.168C375.396 355.965 375.137 355.676 374.984 355.338C374.832 355 374.793 354.628 374.872 354.27C374.951 353.911 375.145 353.583 375.428 353.325C375.712 353.067 376.073 352.892 376.466 352.823C376.859 352.753 377.265 352.791 377.634 352.933C378.003 353.074 378.318 353.313 378.538 353.618C378.758 353.923 378.874 354.281 378.872 354.647C378.872 354.889 378.819 355.128 378.718 355.351C378.616 355.575 378.467 355.777 378.279 355.948C378.091 356.118 377.869 356.253 377.624 356.344C377.379 356.436 377.116 356.482 376.852 356.48Z" fill="white"/>
<path d="M376.853 357.167C376.313 357.167 375.785 357.02 375.336 356.746C374.887 356.472 374.537 356.083 374.331 355.627C374.124 355.171 374.07 354.67 374.175 354.186C374.281 353.702 374.541 353.257 374.922 352.908C375.304 352.56 375.791 352.322 376.32 352.226C376.85 352.13 377.398 352.179 377.897 352.368C378.396 352.557 378.822 352.876 379.122 353.286C379.422 353.697 379.582 354.179 379.582 354.672C379.582 355.334 379.294 355.968 378.783 356.436C378.271 356.904 377.576 357.167 376.853 357.167ZM376.853 353.487C376.583 353.487 376.319 353.561 376.094 353.698C375.87 353.835 375.695 354.029 375.592 354.257C375.488 354.485 375.461 354.736 375.514 354.978C375.567 355.22 375.697 355.442 375.888 355.617C376.078 355.791 376.322 355.91 376.586 355.958C376.851 356.006 377.125 355.981 377.375 355.887C377.624 355.792 377.837 355.633 377.987 355.428C378.137 355.222 378.217 354.981 378.217 354.735C378.227 354.566 378.198 354.397 378.134 354.238C378.069 354.08 377.97 353.935 377.843 353.812C377.715 353.69 377.561 353.592 377.391 353.526C377.221 353.459 377.038 353.425 376.853 353.425V353.487Z" fill="white"/>
<path d="M266.597 256.903L320.122 341.57C320.514 342.194 320.719 342.901 320.718 343.62C320.717 344.34 320.509 345.046 320.115 345.67C319.722 346.293 319.156 346.811 318.475 347.172C317.794 347.533 317.021 347.725 316.233 347.728H209.196C208.408 347.726 207.634 347.535 206.953 347.174C206.271 346.813 205.705 346.294 205.312 345.67C204.919 345.046 204.713 344.339 204.715 343.619C204.716 342.899 204.925 342.192 205.32 341.57L258.832 256.903C259.227 256.282 259.793 255.766 260.475 255.408C261.156 255.05 261.928 254.861 262.715 254.861C263.501 254.861 264.273 255.05 264.955 255.408C265.636 255.766 266.202 256.282 266.597 256.903Z" fill="#263238" stroke="#263238" stroke-linecap="round" stroke-linejoin="round"/>
<path d="M263.648 259.121L316.504 342.741C316.601 342.892 316.652 343.063 316.653 343.237C316.653 343.412 316.603 343.583 316.507 343.734C316.412 343.885 316.274 344.01 316.108 344.096C315.942 344.182 315.754 344.227 315.563 344.225H209.863C209.674 344.223 209.489 344.176 209.325 344.089C209.161 344.002 209.025 343.877 208.93 343.728C208.836 343.578 208.785 343.408 208.783 343.236C208.782 343.063 208.829 342.892 208.922 342.741L261.778 259.121C261.873 258.971 262.009 258.846 262.173 258.76C262.337 258.673 262.523 258.627 262.713 258.627C262.903 258.627 263.089 258.673 263.253 258.76C263.417 258.846 263.553 258.971 263.648 259.121Z" fill="#263238" stroke="#407BFF" stroke-linecap="round" stroke-linejoin="round"/>
<path d="M254.408 285.723C254.116 284.395 254.34 283.016 255.043 281.823C255.745 280.63 256.882 279.699 258.257 279.191C259.64 278.552 261.169 278.218 262.72 278.218C264.27 278.218 265.799 278.552 267.182 279.191C268.557 279.699 269.694 280.63 270.397 281.823C271.1 283.016 271.324 284.395 271.031 285.723L266.937 315.329C266.858 316.423 266.326 317.448 265.449 318.196C265.092 318.527 264.668 318.789 264.199 318.968C263.73 319.147 263.228 319.239 262.72 319.239C262.212 319.239 261.709 319.147 261.241 318.968C260.772 318.789 260.347 318.527 259.99 318.196C259.114 317.448 258.582 316.423 258.503 315.329L254.408 285.723ZM257.616 337.319C256.916 336.686 256.363 335.93 255.993 335.096C255.622 334.263 255.441 333.369 255.459 332.47C255.443 331.579 255.621 330.693 255.982 329.865C256.342 329.037 256.879 328.283 257.561 327.645C258.237 326.989 259.056 326.471 259.967 326.126C260.877 325.78 261.857 325.614 262.843 325.638C263.821 325.631 264.791 325.804 265.695 326.147C266.599 326.489 267.419 326.993 268.105 327.631C268.791 328.268 269.33 329.025 269.69 329.856C270.049 330.687 270.222 331.576 270.199 332.47C270.211 333.361 270.03 334.245 269.664 335.071C269.299 335.897 268.757 336.649 268.07 337.281C267.404 337.936 266.594 338.454 265.693 338.802C264.792 339.15 263.821 339.32 262.843 339.301C261.869 339.313 260.904 339.144 260.005 338.803C259.106 338.462 258.293 337.957 257.616 337.319Z" fill="white"/>
<path d="M348.629 330.101L351.59 327.284L357.049 326.461C357.143 326.445 357.231 326.405 357.301 326.345C357.371 326.286 357.421 326.209 357.445 326.125L358.032 323.931L366.562 326.76C367.719 325.817 368.758 324.76 369.66 323.607L370.82 326C370.844 326.063 370.886 326.119 370.942 326.162L373.986 328.518L374.941 332.258C374.97 332.373 375.049 332.474 375.159 332.537C375.268 332.6 375.401 332.62 375.528 332.594C375.654 332.568 375.764 332.496 375.833 332.396C375.902 332.295 375.925 332.174 375.896 332.058L374.9 328.119C374.883 328.026 374.83 327.942 374.75 327.882L371.666 325.501L370.301 322.697C370.451 322.485 370.601 322.273 370.738 322.061L373.358 322.647L373.822 320.889L375.705 321.3C377.07 322.547 383.102 328.181 384.153 331.996C384.188 332.11 384.27 332.208 384.382 332.268C384.494 332.328 384.627 332.347 384.754 332.32C384.816 332.306 384.876 332.28 384.927 332.244C384.979 332.209 385.023 332.164 385.056 332.113C385.089 332.062 385.111 332.006 385.12 331.947C385.129 331.889 385.125 331.829 385.108 331.772C384.003 327.807 378.148 322.273 376.524 320.789L377.384 317.573C379.622 317.012 386.637 315.08 390.022 312.687C390.113 312.61 390.169 312.504 390.179 312.39C390.188 312.276 390.15 312.164 390.072 312.075C389.994 311.986 389.882 311.928 389.758 311.912C389.635 311.896 389.51 311.923 389.407 311.989C386.036 314.419 378.558 316.364 376.811 316.788L374.777 316.339L375.228 314.694L373.085 314.22C373.018 313.445 372.871 312.677 372.648 311.926L375.91 309.52L379.841 308.698C379.945 308.673 380.04 308.621 380.114 308.548L382.966 305.469C383.008 305.424 383.04 305.372 383.06 305.315C383.08 305.259 383.088 305.2 383.083 305.141C383.078 305.082 383.06 305.024 383.03 304.971C383.001 304.919 382.96 304.872 382.911 304.833C382.862 304.795 382.805 304.766 382.743 304.747C382.682 304.729 382.617 304.722 382.552 304.727C382.487 304.731 382.424 304.747 382.366 304.774C382.309 304.801 382.257 304.838 382.215 304.883L379.486 307.862L375.61 308.673C375.535 308.686 375.464 308.716 375.405 308.76L372.375 311.004C372.037 310.053 371.579 309.141 371.011 308.286C371.011 308.286 366.916 307.85 362.44 307.463L362.863 305.893C362.884 305.808 362.878 305.72 362.847 305.639C362.816 305.557 362.76 305.486 362.686 305.432L358.291 302.427L357.077 298.688C357.042 298.574 356.959 298.478 356.846 298.419C356.734 298.361 356.601 298.345 356.476 298.376C356.393 298.398 356.318 298.439 356.258 298.496C356.198 298.553 356.156 298.623 356.135 298.7C356.115 298.778 356.115 298.859 356.135 298.937L357.391 302.814C357.414 302.911 357.478 302.995 357.568 303.051L361.826 305.968L361.444 307.389C358.073 307.102 354.716 306.865 353.01 306.878L351.645 303.063C351.615 302.97 351.551 302.889 351.465 302.832C351.378 302.776 351.274 302.747 351.167 302.751L344.016 302.839L342.051 300.458C342.013 300.41 341.965 300.37 341.91 300.34C341.855 300.309 341.794 300.289 341.73 300.281C341.666 300.273 341.601 300.277 341.539 300.292C341.477 300.308 341.419 300.334 341.368 300.371C341.281 300.433 341.218 300.521 341.191 300.62C341.171 300.684 341.167 300.751 341.182 300.816C341.196 300.881 341.227 300.942 341.273 300.994L343.388 303.562C343.436 303.616 343.496 303.66 343.564 303.69C343.633 303.721 343.708 303.736 343.784 303.736L350.826 303.649L351.959 306.94C349.388 307.427 346.878 308.15 344.466 309.096C343.882 309.318 343.365 309.665 342.959 310.108C342.553 310.552 342.271 311.079 342.137 311.644C342.003 312.208 342.021 312.794 342.189 313.352C342.357 313.909 342.67 314.421 343.102 314.843L348.192 320.016L345.858 322.26L339.663 319.231C339.593 319.197 339.516 319.18 339.437 319.18C339.359 319.18 339.281 319.197 339.212 319.231L336.046 320.615C335.981 320.643 335.924 320.685 335.879 320.737C335.834 320.789 335.802 320.849 335.787 320.914C335.746 321.01 335.746 321.117 335.787 321.213C335.814 321.266 335.853 321.314 335.901 321.353C335.949 321.393 336.005 321.423 336.066 321.443C336.127 321.463 336.191 321.471 336.256 321.468C336.32 321.465 336.384 321.45 336.442 321.425L339.39 320.178L345.695 323.257C345.786 323.304 345.892 323.322 345.995 323.308C346.099 323.295 346.194 323.251 346.268 323.183L348.888 320.777L349.298 321.176L357.022 323.731L356.49 325.726L351.236 326.524C351.131 326.541 351.035 326.589 350.963 326.661L347.892 329.578C347.841 329.638 347.8 329.706 347.769 329.777C347.749 329.854 347.751 329.935 347.775 330.012C347.798 330.088 347.844 330.158 347.906 330.213C347.96 330.253 348.022 330.282 348.089 330.297C348.156 330.313 348.226 330.316 348.295 330.305C348.363 330.295 348.428 330.271 348.486 330.236C348.543 330.201 348.592 330.155 348.629 330.101Z" fill="#263238"/>
<path d="M353.201 308L354.306 312.425L352.068 314.133L353.378 316.401L349.68 320.228L366.084 325.04L363.6 316.701L369.987 309.408L353.201 308Z" fill="#7A7A7A"/>
<path d="M349.202 320.116C349.228 320.049 349.265 319.986 349.312 319.929L352.778 316.339L351.632 314.344C351.578 314.254 351.562 314.15 351.584 314.05C351.606 313.95 351.667 313.86 351.754 313.796L353.761 312.263L352.71 308.099C352.697 308.029 352.7 307.958 352.719 307.889C352.737 307.821 352.772 307.756 352.819 307.7C352.871 307.646 352.937 307.604 353.011 307.578C353.084 307.552 353.164 307.543 353.242 307.551L370.028 308.959C370.118 308.965 370.204 308.994 370.276 309.043C370.349 309.091 370.405 309.157 370.438 309.234C370.471 309.307 370.482 309.388 370.47 309.466C370.458 309.545 370.423 309.62 370.37 309.682L364.133 316.8L366.548 324.915C366.571 324.993 366.571 325.074 366.549 325.151C366.526 325.229 366.48 325.299 366.418 325.355C366.355 325.411 366.277 325.45 366.192 325.469C366.107 325.489 366.018 325.487 365.934 325.464L349.557 320.652C349.481 320.626 349.411 320.584 349.355 320.53C349.298 320.476 349.255 320.412 349.23 320.34C349.207 320.268 349.198 320.192 349.202 320.116ZM353.843 316.501C353.826 316.575 353.788 316.644 353.733 316.701L350.54 320.004L365.375 324.354L363.123 316.813C363.101 316.744 363.098 316.672 363.114 316.602C363.131 316.532 363.167 316.468 363.218 316.414L369.032 309.782L353.829 308.535L354.784 312.362C354.802 312.444 354.797 312.528 354.768 312.607C354.739 312.686 354.688 312.756 354.62 312.811L352.683 314.282L353.802 316.227C353.846 316.312 353.86 316.408 353.843 316.501Z" fill="#263238"/>
<path d="M369.154 310.617L363.6 316.701L365.92 323.257L371.215 318.159L369.154 310.617Z" fill="#7A7A7A"/>
<path d="M363.124 316.588C363.136 316.523 363.17 316.462 363.22 316.414L368.788 310.331C368.842 310.265 368.916 310.216 369.001 310.189C369.087 310.162 369.179 310.159 369.265 310.181C369.353 310.199 369.434 310.239 369.499 310.296C369.564 310.353 369.611 310.425 369.634 310.505L371.695 318.047C371.716 318.121 371.715 318.199 371.694 318.273C371.672 318.348 371.63 318.415 371.572 318.471L366.277 323.569C366.218 323.625 366.144 323.665 366.063 323.687C365.981 323.709 365.895 323.711 365.813 323.694C365.729 323.678 365.652 323.642 365.589 323.59C365.527 323.537 365.481 323.469 365.458 323.395L363.124 316.838C363.097 316.756 363.097 316.67 363.124 316.588ZM368.911 311.602L364.148 316.825L366.126 322.422L370.685 318.059L368.911 311.602Z" fill="#263238"/>
<path d="M212.837 242.368L209.125 244.3L203.666 243.689C203.572 243.677 203.477 243.691 203.392 243.729C203.307 243.766 203.236 243.826 203.188 243.901L201.946 245.845L194.631 240.934C193.231 241.534 191.908 242.274 190.687 243.14L190.332 240.548C190.322 240.48 190.294 240.416 190.25 240.361L188.067 237.306L188.34 233.43C188.343 233.371 188.334 233.312 188.313 233.256C188.292 233.2 188.259 233.149 188.215 233.105C188.172 233.061 188.12 233.025 188.062 232.999C188.004 232.974 187.94 232.959 187.876 232.956C187.746 232.952 187.62 232.994 187.524 233.073C187.427 233.152 187.368 233.262 187.357 233.38L187.084 237.406C187.051 237.495 187.051 237.592 187.084 237.68L189.295 240.759L189.718 243.801L189.104 244.3L186.77 243.053L185.788 244.611L184.109 243.726C183.195 242.205 179.155 235.225 179.333 231.261C179.313 231.156 179.254 231.061 179.165 230.992C179.077 230.924 178.964 230.886 178.848 230.886C178.732 230.886 178.619 230.924 178.531 230.992C178.442 231.061 178.383 231.156 178.364 231.261C178.172 235.349 182.062 242.181 183.167 244.025L181.339 246.88C179.019 246.88 171.704 246.818 167.691 248.289C167.573 248.333 167.478 248.418 167.427 248.525C167.377 248.632 167.373 248.753 167.418 248.862C167.441 248.918 167.476 248.969 167.521 249.013C167.566 249.056 167.62 249.09 167.68 249.114C167.74 249.137 167.805 249.149 167.87 249.149C167.935 249.148 168 249.136 168.06 249.111C172.045 247.665 179.824 247.74 181.625 247.778L183.44 248.737L182.499 250.208L184.409 251.218C184.228 251.976 184.128 252.749 184.109 253.524L180.329 254.945L176.303 254.721C176.206 254.69 176.1 254.69 176.003 254.721L172.304 256.94C172.242 256.968 172.188 257.008 172.144 257.057C172.101 257.106 172.069 257.163 172.051 257.224C172.033 257.285 172.029 257.348 172.039 257.411C172.05 257.473 172.075 257.532 172.113 257.585C172.151 257.638 172.2 257.683 172.258 257.718C172.316 257.752 172.381 257.775 172.45 257.784C172.518 257.794 172.588 257.79 172.654 257.774C172.721 257.757 172.783 257.728 172.836 257.688L176.398 255.556L180.37 255.793C180.442 255.806 180.516 255.806 180.588 255.793L184.205 254.434C184.242 255.437 184.406 256.433 184.696 257.401C184.696 257.401 188.531 258.885 192.652 260.405L191.752 261.802C191.698 261.875 191.669 261.962 191.669 262.051C191.669 262.14 191.698 262.226 191.752 262.3L195.013 266.314V270.216C195.013 270.335 195.065 270.449 195.157 270.533C195.249 270.617 195.374 270.665 195.505 270.665C195.591 270.666 195.676 270.645 195.75 270.606C195.825 270.566 195.886 270.509 195.928 270.44C195.949 270.367 195.949 270.289 195.928 270.216V266.177C195.932 266.078 195.898 265.981 195.832 265.903L192.652 262.001L193.458 260.754C196.596 261.901 199.749 262.998 201.387 263.435L201.455 267.424C201.454 267.52 201.489 267.614 201.553 267.691C201.617 267.767 201.708 267.823 201.81 267.847L208.702 269.617L209.834 272.41C209.857 272.466 209.892 272.517 209.937 272.561C209.981 272.605 210.035 272.64 210.095 272.664C210.155 272.688 210.219 272.702 210.285 272.703C210.35 272.704 210.415 272.694 210.476 272.672C210.579 272.638 210.667 272.572 210.722 272.485C210.752 272.424 210.768 272.358 210.768 272.291C210.768 272.225 210.752 272.159 210.722 272.098L209.493 269.094C209.467 269.027 209.424 268.968 209.367 268.92C209.31 268.872 209.241 268.838 209.166 268.82L202.342 267.087V263.621C204.955 263.823 207.584 263.785 210.189 263.509C210.821 263.456 211.429 263.264 211.96 262.948C212.492 262.632 212.931 262.203 213.24 261.697C213.55 261.191 213.719 260.624 213.734 260.045C213.75 259.466 213.61 258.892 213.328 258.373L209.916 252.141L212.892 250.657L217.9 255.182C217.954 255.233 218.021 255.271 218.095 255.292C218.168 255.314 218.247 255.319 218.323 255.307L221.79 254.796C221.86 254.786 221.928 254.762 221.987 254.725C222.046 254.689 222.095 254.64 222.131 254.584C222.188 254.493 222.212 254.389 222.199 254.285C222.179 254.167 222.109 254.062 222.004 253.992C221.899 253.922 221.768 253.893 221.64 253.911L218.405 254.384L213.328 249.785C213.25 249.719 213.153 249.676 213.048 249.663C212.943 249.65 212.836 249.666 212.741 249.71L209.48 251.343L209.22 250.844L202.615 246.394L203.748 244.624L209.029 245.21C209.127 245.24 209.232 245.24 209.33 245.21L213.178 243.203C213.256 243.169 213.319 243.112 213.356 243.041C213.399 242.972 213.421 242.895 213.421 242.816C213.421 242.737 213.399 242.66 213.356 242.592C213.306 242.51 213.229 242.444 213.136 242.403C213.043 242.363 212.938 242.351 212.837 242.368Z" fill="#263238"/>
<path d="M201.581 262.375L201.895 257.838L204.57 256.778L204.024 254.273L208.76 251.555L194.526 242.692L194.321 251.331L185.914 256.653L201.581 262.375Z" fill="#7A7A7A"/>
<path d="M209.18 251.792C209.136 251.85 209.08 251.901 209.016 251.941L204.567 254.434L205.045 256.641C205.069 256.742 205.054 256.847 205.001 256.938C204.949 257.029 204.863 257.101 204.758 257.14L202.356 258.087L202.07 262.35C202.065 262.421 202.041 262.49 202.001 262.551C201.961 262.612 201.904 262.663 201.838 262.699C201.767 262.73 201.69 262.746 201.612 262.746C201.534 262.746 201.457 262.73 201.387 262.699L185.788 257.077C185.705 257.045 185.632 256.994 185.577 256.928C185.522 256.863 185.486 256.785 185.474 256.703C185.467 256.623 185.483 256.543 185.522 256.47C185.56 256.398 185.619 256.336 185.693 256.292L193.881 251.094L194.086 242.679C194.091 242.599 194.119 242.521 194.167 242.453C194.215 242.386 194.282 242.331 194.361 242.294C194.44 242.258 194.528 242.241 194.616 242.245C194.704 242.249 194.79 242.274 194.864 242.318L208.989 251.206C209.055 251.248 209.11 251.304 209.148 251.369C209.186 251.434 209.206 251.506 209.207 251.58C209.209 251.651 209.2 251.723 209.18 251.792ZM203.598 254.048C203.641 253.985 203.697 253.93 203.762 253.886L207.856 251.542L195 243.527L194.809 251.343C194.805 251.413 194.783 251.48 194.745 251.541C194.707 251.602 194.654 251.653 194.591 251.692L186.935 256.554L201.128 261.727L201.401 257.813C201.406 257.729 201.438 257.649 201.491 257.58C201.544 257.512 201.617 257.459 201.701 257.426L204.008 256.516L203.544 254.36C203.518 254.253 203.538 254.142 203.598 254.048Z" fill="#263238"/>
<path d="M187.084 255.718L194.317 251.331L194.126 244.437L187.452 247.952L187.084 255.718Z" fill="#7A7A7A"/>
<path d="M194.739 251.555C194.7 251.613 194.649 251.664 194.589 251.705L187.356 256.093C187.278 256.135 187.188 256.158 187.097 256.158C187.005 256.158 186.916 256.135 186.837 256.093C186.762 256.048 186.7 255.988 186.657 255.916C186.614 255.844 186.591 255.763 186.592 255.681L186.974 247.915C186.977 247.839 187.001 247.764 187.044 247.699C187.087 247.634 187.147 247.579 187.22 247.541L193.88 244.038C193.955 244.001 194.039 243.982 194.125 243.982C194.211 243.982 194.295 244.001 194.371 244.038C194.444 244.075 194.505 244.13 194.548 244.195C194.592 244.261 194.615 244.336 194.616 244.412L194.808 251.306C194.808 251.393 194.785 251.479 194.739 251.555ZM187.615 254.858L193.811 251.119L193.661 245.222L187.943 248.239L187.615 254.858Z" fill="#263238"/>
<path d="M244.472 366.326L248.116 368.346L250.19 372.983C250.228 373.065 250.291 373.135 250.37 373.185C250.45 373.236 250.544 373.265 250.641 373.27H253.097L251.951 381.497C253.23 382.319 254.603 383.013 256.045 383.566L253.738 385.112C253.681 385.157 253.635 385.212 253.602 385.274L251.76 388.49L247.911 390.173C247.793 390.224 247.703 390.316 247.659 390.429C247.616 390.541 247.623 390.664 247.679 390.772C247.735 390.879 247.836 390.962 247.959 391.001C248.081 391.041 248.216 391.035 248.334 390.984L252.333 389.238C252.428 389.196 252.505 389.126 252.551 389.039L254.421 385.773L257.15 383.953L257.915 384.202V386.695H259.893V388.465C258.884 389.936 254.175 396.568 250.34 398.338C250.239 398.398 250.165 398.49 250.133 398.597C250.102 398.703 250.114 398.817 250.168 398.916C250.222 399.014 250.314 399.091 250.426 399.132C250.539 399.173 250.664 399.174 250.777 399.136C254.789 397.291 259.416 390.859 260.644 389.089H264.261C265.352 390.971 268.901 396.805 272.244 399.286C272.346 399.362 272.476 399.398 272.607 399.386C272.737 399.374 272.857 399.316 272.94 399.223C273.024 399.131 273.063 399.012 273.05 398.893C273.038 398.773 272.973 398.664 272.872 398.588C269.529 396.094 265.816 389.862 264.97 388.416V386.508H266.826V384.501C267.636 384.271 268.422 383.974 269.174 383.616L272.463 385.997L274.196 389.313C274.247 389.4 274.322 389.474 274.414 389.525L278.331 391.395C278.447 391.451 278.582 391.463 278.708 391.428C278.833 391.393 278.938 391.314 279 391.208C279.061 391.102 279.074 390.978 279.036 390.864C278.998 390.749 278.911 390.653 278.795 390.597L275.015 388.802L273.131 385.623C273.102 385.563 273.055 385.511 272.995 385.474L269.938 383.255C270.879 382.735 271.749 382.116 272.531 381.41C272.531 381.41 272.081 377.67 271.521 373.606H273.295C273.393 373.611 273.489 373.589 273.572 373.542C273.655 373.495 273.72 373.426 273.759 373.345L276.011 368.782L279.737 366.875C279.847 366.817 279.929 366.723 279.965 366.611C280 366.499 279.987 366.379 279.928 366.277C279.886 366.207 279.824 366.149 279.75 366.107C279.676 366.066 279.592 366.043 279.505 366.04C279.418 366.037 279.332 366.059 279.259 366.102L275.383 368.072C275.292 368.115 275.22 368.185 275.179 368.271L272.995 372.709H271.398C270.962 369.642 270.484 366.588 270.102 365.08L273.882 363.085C273.975 363.037 274.048 362.962 274.09 362.872C274.132 362.782 274.14 362.682 274.114 362.587L272.449 356.229L274.564 353.96C274.61 353.919 274.647 353.869 274.671 353.815C274.696 353.76 274.709 353.702 274.709 353.643C274.709 353.583 274.696 353.525 274.671 353.47C274.647 353.416 274.61 353.366 274.564 353.325C274.48 353.261 274.374 353.226 274.264 353.225C274.192 353.223 274.121 353.235 274.055 353.261C273.989 353.287 273.93 353.326 273.882 353.375L271.603 355.868C271.554 355.92 271.519 355.983 271.503 356.05C271.486 356.117 271.488 356.187 271.507 356.254L273.145 362.487L269.87 364.22C268.792 362.027 267.476 359.938 265.939 357.987C265.579 357.509 265.097 357.118 264.535 356.847C263.973 356.577 263.347 356.436 262.712 356.436C262.076 356.436 261.45 356.577 260.888 356.847C260.326 357.118 259.844 357.509 259.484 357.987L255.158 363.771L252.237 362.15L254.121 355.918C254.141 355.85 254.144 355.779 254.13 355.709C254.116 355.64 254.085 355.575 254.039 355.519L251.869 353.025C251.823 352.973 251.765 352.93 251.699 352.899C251.633 352.869 251.56 352.853 251.487 352.851C251.372 352.848 251.26 352.883 251.173 352.951C251.073 353.024 251.008 353.131 250.993 353.247C250.977 353.364 251.013 353.481 251.091 353.574L253.111 355.918L251.2 362.213C251.173 362.306 251.179 362.405 251.219 362.495C251.258 362.585 251.328 362.661 251.418 362.711L254.557 364.519L254.216 364.968L253.179 372.447H250.941L248.921 367.947C248.881 367.861 248.815 367.787 248.73 367.735L244.936 365.641C244.863 365.597 244.777 365.576 244.69 365.578C244.605 365.575 244.521 365.593 244.446 365.63C244.372 365.668 244.31 365.723 244.267 365.79C244.226 365.887 244.223 365.995 244.261 366.093C244.299 366.191 244.373 366.274 244.472 366.326Z" fill="#263238"/>
<path d="M269.037 365.554L264.547 367.511L262.227 365.89L260.098 367.548L255.198 365.105L253.656 380.774L262.022 376.723L271.207 380.824L269.037 365.554Z" fill="#7A7A7A"/>
<path d="M255.213 364.644C255.289 364.626 255.369 364.626 255.445 364.644L260.044 366.95L261.914 365.491C262 365.425 262.108 365.389 262.221 365.389C262.333 365.389 262.442 365.425 262.528 365.491L264.602 366.937L268.833 365.105C268.901 365.074 268.975 365.058 269.051 365.058C269.127 365.058 269.202 365.074 269.27 365.105C269.337 365.141 269.394 365.19 269.439 365.248C269.484 365.306 269.514 365.372 269.529 365.441L271.767 380.774C271.778 380.855 271.765 380.937 271.729 381.012C271.693 381.087 271.635 381.151 271.562 381.198C271.484 381.235 271.398 381.255 271.31 381.255C271.222 381.255 271.135 381.235 271.057 381.198L262.105 377.197L253.916 381.123C253.84 381.166 253.753 381.189 253.664 381.189C253.575 381.189 253.487 381.166 253.411 381.123C253.337 381.08 253.278 381.019 253.242 380.946C253.205 380.872 253.193 380.791 253.207 380.712L254.749 365.055C254.754 364.981 254.779 364.909 254.822 364.846C254.865 364.783 254.924 364.73 254.994 364.693C255.062 364.663 255.137 364.646 255.213 364.644ZM260.085 367.984C260.013 368.001 259.938 368.001 259.867 367.984L255.622 365.865L254.257 380.026L261.818 376.374C261.887 376.34 261.965 376.322 262.043 376.322C262.122 376.322 262.199 376.34 262.268 376.374L270.634 380.114L268.669 366.277L264.793 367.959C264.715 368.002 264.625 368.025 264.534 368.025C264.443 368.025 264.353 368.002 264.275 367.959L262.214 366.464L260.371 367.897C260.289 367.956 260.189 367.991 260.085 367.997V367.984Z" fill="#263238"/>
<path d="M269.734 380.352L262.024 376.723L255.527 380.24L262.133 383.844L269.734 380.352Z" fill="#7A7A7A"/>
<path d="M262.036 376.274H262.241L269.965 379.902C270.046 379.94 270.113 379.997 270.16 380.067C270.207 380.138 270.232 380.218 270.232 380.301C270.232 380.383 270.207 380.464 270.16 380.534C270.113 380.605 270.046 380.662 269.965 380.7L262.364 384.19C262.291 384.228 262.209 384.247 262.125 384.247C262.041 384.247 261.959 384.228 261.886 384.19L255.281 380.588C255.212 380.544 255.154 380.487 255.114 380.42C255.074 380.353 255.051 380.278 255.049 380.201C255.048 380.122 255.07 380.045 255.113 379.977C255.157 379.909 255.219 379.853 255.295 379.815L261.791 376.311C261.867 376.277 261.952 376.264 262.036 376.274ZM268.655 380.351L262.036 377.234L256.482 380.239L262.214 383.343L268.655 380.351Z" fill="#263238"/>
<path d="M304.945 271.052L303.157 267.536L304.235 262.625C304.253 262.538 304.243 262.448 304.207 262.367C304.171 262.285 304.109 262.214 304.031 262.163L301.997 260.917L307.92 254.622C307.358 253.309 306.645 252.056 305.791 250.882L308.657 250.757C308.729 250.77 308.803 250.77 308.875 250.757L312.356 249L316.573 249.536C316.636 249.544 316.702 249.541 316.764 249.526C316.826 249.512 316.885 249.485 316.936 249.449C316.987 249.413 317.029 249.368 317.061 249.316C317.092 249.265 317.112 249.208 317.118 249.149C317.134 249.034 317.1 248.917 317.024 248.824C316.948 248.731 316.835 248.669 316.709 248.651L312.328 248.09C312.23 248.064 312.126 248.064 312.028 248.09L308.493 249.872L305.15 250.034L304.645 249.436L306.173 247.404L304.549 246.382L305.641 244.936C307.374 244.213 315.303 241.059 319.589 241.508C319.708 241.507 319.824 241.465 319.912 241.392C320.001 241.319 320.058 241.218 320.071 241.109C320.085 241.001 320.054 240.891 319.985 240.802C319.917 240.712 319.814 240.648 319.698 240.623C315.235 240.149 307.497 243.116 305.395 244.051L302.42 242.181C302.639 240.062 303.198 233.455 301.902 229.653C301.883 229.596 301.852 229.544 301.811 229.498C301.77 229.453 301.72 229.415 301.663 229.387C301.605 229.359 301.543 229.342 301.479 229.336C301.414 229.331 301.349 229.336 301.287 229.354C301.226 229.371 301.168 229.399 301.119 229.437C301.069 229.474 301.029 229.521 300.999 229.573C300.97 229.626 300.953 229.683 300.948 229.741C300.944 229.8 300.952 229.859 300.974 229.915C302.256 233.654 301.588 240.735 301.41 242.38L300.223 243.951L298.694 242.991L297.453 244.649C296.637 244.43 295.801 244.28 294.955 244.2L293.59 240.56L294.15 236.92C294.183 236.827 294.183 236.727 294.15 236.634L292.007 233.106C291.976 233.054 291.934 233.009 291.883 232.972C291.833 232.935 291.775 232.908 291.712 232.892C291.65 232.876 291.585 232.871 291.521 232.878C291.457 232.884 291.395 232.903 291.338 232.931C291.227 232.991 291.145 233.088 291.109 233.202C291.074 233.316 291.088 233.437 291.147 233.542L293.208 236.945L292.662 240.548C292.643 240.613 292.643 240.682 292.662 240.747L293.877 244.138C292.779 244.093 291.68 244.169 290.602 244.362C290.602 244.362 288.691 247.741 286.726 251.381L285.252 250.471C285.175 250.419 285.081 250.391 284.986 250.391C284.89 250.391 284.797 250.419 284.72 250.471L280.079 253.151L275.821 252.852C275.758 252.847 275.693 252.853 275.632 252.871C275.571 252.889 275.515 252.918 275.467 252.957C275.418 252.995 275.379 253.042 275.351 253.095C275.322 253.147 275.306 253.205 275.303 253.263C275.295 253.381 275.337 253.498 275.421 253.588C275.505 253.679 275.624 253.737 275.753 253.749L280.175 254.048C280.28 254.057 280.385 254.036 280.475 253.986L284.965 251.381L286.33 252.203C284.842 254.983 283.396 257.776 282.809 259.222L278.442 258.985C278.336 258.981 278.231 259.008 278.143 259.062C278.055 259.116 277.988 259.193 277.95 259.284L275.508 265.429L272.369 266.252C272.307 266.269 272.249 266.297 272.199 266.335C272.149 266.372 272.108 266.418 272.077 266.471C272.047 266.523 272.028 266.58 272.022 266.639C272.016 266.697 272.022 266.757 272.041 266.813C272.054 266.862 272.077 266.909 272.11 266.949C272.143 266.99 272.184 267.024 272.232 267.05C272.296 267.078 272.366 267.092 272.437 267.092C272.508 267.092 272.578 267.078 272.642 267.05L276.012 266.153C276.087 266.134 276.156 266.1 276.213 266.052C276.27 266.005 276.314 265.945 276.34 265.878L278.742 259.845L282.522 260.044C282.113 262.41 281.962 264.807 282.072 267.2C282.08 267.779 282.243 268.347 282.547 268.855C282.851 269.364 283.286 269.797 283.815 270.116C284.344 270.436 284.95 270.632 285.581 270.689C286.212 270.745 286.849 270.66 287.435 270.441L294.546 267.81L295.91 270.628L290.588 274.854C290.531 274.9 290.486 274.958 290.458 275.023C290.429 275.088 290.418 275.158 290.424 275.228L290.724 278.419C290.732 278.485 290.753 278.548 290.789 278.606C290.824 278.664 290.872 278.715 290.929 278.755C291.026 278.812 291.141 278.838 291.257 278.83C291.385 278.818 291.502 278.759 291.584 278.669C291.665 278.578 291.705 278.461 291.693 278.344L291.42 275.377L296.879 271.089C296.959 271.025 297.013 270.94 297.036 270.846C297.058 270.751 297.046 270.653 297.002 270.565L295.405 267.412L295.965 267.2L301.315 261.515L303.171 262.687L302.12 267.449C302.093 267.543 302.093 267.642 302.12 267.736L304.017 271.388C304.052 271.459 304.109 271.52 304.181 271.563C304.255 271.602 304.34 271.623 304.426 271.623C304.513 271.623 304.597 271.602 304.672 271.563C304.775 271.519 304.859 271.445 304.908 271.352C304.958 271.258 304.971 271.152 304.945 271.052Z" fill="#263238"/>
<path d="M283.939 259.308L288.866 259.932L289.821 262.45L292.606 262.138L295.212 266.651L305.953 254.36L296.55 253.512L291.35 245.472L283.939 259.308Z" fill="#7A7A7A"/>
<path d="M294.968 267.025C294.903 266.98 294.847 266.925 294.804 266.863L292.361 262.624L289.918 262.899C289.805 262.911 289.692 262.888 289.595 262.833C289.499 262.779 289.425 262.697 289.386 262.599L288.54 260.343L283.9 259.745C283.825 259.738 283.753 259.713 283.691 259.674C283.629 259.635 283.579 259.582 283.545 259.52C283.508 259.457 283.488 259.387 283.488 259.315C283.488 259.243 283.508 259.172 283.545 259.109L290.955 245.272C290.998 245.202 291.06 245.144 291.136 245.103C291.211 245.062 291.297 245.041 291.385 245.041C291.473 245.041 291.559 245.062 291.635 245.103C291.71 245.144 291.773 245.202 291.815 245.272L296.878 253.126L306.049 253.948C306.136 253.956 306.219 253.986 306.289 254.035C306.359 254.083 306.413 254.148 306.445 254.223C306.491 254.29 306.515 254.368 306.515 254.447C306.515 254.526 306.491 254.604 306.445 254.671L295.705 266.962C295.656 267.022 295.592 267.069 295.518 267.1C295.444 267.13 295.362 267.143 295.281 267.137C295.167 267.128 295.058 267.089 294.968 267.025ZM292.907 261.777C292.974 261.813 293.031 261.865 293.071 261.926L295.322 265.841L305.039 254.721L296.523 253.961C296.448 253.954 296.376 253.931 296.312 253.894C296.248 253.857 296.194 253.808 296.155 253.749L291.419 246.407L284.705 258.947L288.963 259.483C289.052 259.495 289.137 259.529 289.207 259.582C289.277 259.634 289.329 259.704 289.358 259.782L290.191 261.964L292.579 261.689C292.687 261.686 292.794 261.717 292.88 261.777H292.907Z" fill="#263238"/>
<path d="M292.293 246.606L296.551 253.513L304.084 253.862L300.754 247.529L292.293 246.606Z" fill="#7A7A7A"/>
<path d="M296.333 253.887C296.273 253.846 296.222 253.795 296.183 253.737L291.939 246.831C291.892 246.759 291.867 246.677 291.867 246.594C291.867 246.51 291.892 246.428 291.939 246.357C291.992 246.291 292.062 246.238 292.143 246.203C292.224 246.168 292.313 246.152 292.403 246.157L300.864 247.08C300.945 247.09 301.022 247.118 301.089 247.162C301.156 247.205 301.21 247.262 301.246 247.329L304.522 253.7C304.565 253.766 304.588 253.841 304.588 253.918C304.588 253.995 304.565 254.07 304.522 254.136C304.476 254.203 304.412 254.257 304.334 254.293C304.257 254.328 304.171 254.343 304.085 254.336L296.552 253.987C296.47 253.972 296.395 253.938 296.333 253.887ZM293.263 247.155L296.907 253.089L303.348 253.376L300.428 247.94L293.263 247.155Z" fill="#263238"/>
<path d="M394.388 270.553L392.56 267.025L393.638 262.113C393.654 262.028 393.644 261.941 393.608 261.861C393.571 261.782 393.511 261.713 393.433 261.665L391.399 260.418L397.322 254.185C396.761 252.873 396.047 251.619 395.193 250.445L398.059 250.321C398.132 250.332 398.206 250.332 398.278 250.321L401.758 248.563L405.975 249.099C406.039 249.108 406.104 249.105 406.166 249.09C406.229 249.075 406.287 249.049 406.338 249.012C406.389 248.976 406.432 248.931 406.463 248.88C406.495 248.828 406.514 248.771 406.521 248.713C406.53 248.655 406.527 248.597 406.512 248.54C406.497 248.484 406.469 248.431 406.431 248.385C406.393 248.338 406.345 248.299 406.29 248.27C406.235 248.241 406.174 248.222 406.111 248.214L401.731 247.653C401.632 247.627 401.528 247.627 401.43 247.653L397.896 249.436L394.538 249.598C394.393 249.398 394.229 249.199 394.047 248.999L395.576 246.967L393.952 245.945L395.043 244.487C396.777 243.776 404.706 240.61 408.991 241.071C409.117 241.082 409.243 241.048 409.342 240.976C409.441 240.904 409.506 240.799 409.523 240.685C409.533 240.626 409.529 240.567 409.513 240.51C409.497 240.453 409.468 240.399 409.428 240.353C409.389 240.306 409.339 240.267 409.283 240.239C409.227 240.21 409.164 240.192 409.1 240.186C404.637 239.712 396.899 242.742 394.798 243.602L391.864 241.607C392.082 239.501 392.641 232.881 391.345 229.079C391.304 228.967 391.217 228.875 391.102 228.821C390.987 228.767 390.854 228.757 390.731 228.793C390.669 228.809 390.612 228.838 390.562 228.875C390.513 228.913 390.472 228.959 390.443 229.012C390.413 229.064 390.396 229.122 390.392 229.18C390.387 229.239 390.396 229.298 390.417 229.353C391.7 233.093 391.031 240.174 390.854 241.819L389.666 243.39L388.138 242.43L386.896 244.088C386.08 243.869 385.244 243.719 384.398 243.639L383.034 239.999L383.593 236.359C383.627 236.266 383.627 236.166 383.593 236.072L381.41 232.507C381.38 232.454 381.338 232.408 381.288 232.37C381.237 232.332 381.179 232.304 381.116 232.288C381.054 232.272 380.988 232.267 380.924 232.275C380.859 232.283 380.797 232.302 380.741 232.333C380.63 232.39 380.549 232.485 380.513 232.597C380.477 232.708 380.491 232.828 380.55 232.931L382.611 236.334L382.065 239.937C382.044 240.006 382.044 240.079 382.065 240.149L383.279 243.539C382.182 243.494 381.082 243.569 380.004 243.764C380.004 243.764 378.093 247.142 376.128 250.782L374.654 249.86C374.575 249.811 374.483 249.786 374.388 249.786C374.293 249.786 374.201 249.811 374.122 249.86L369.482 252.527L365.224 252.24C365.16 252.235 365.096 252.242 365.035 252.26C364.974 252.278 364.917 252.307 364.869 252.346C364.821 252.384 364.781 252.431 364.753 252.484C364.725 252.536 364.709 252.593 364.705 252.652C364.699 252.729 364.714 252.806 364.75 252.876C364.786 252.946 364.841 253.006 364.91 253.051C364.98 253.101 365.067 253.127 365.155 253.126L369.577 253.437C369.684 253.448 369.791 253.421 369.878 253.362L374.368 250.77L375.732 251.592C374.245 254.372 372.798 257.152 372.211 258.61L367.844 258.374C367.738 258.368 367.632 258.394 367.544 258.448C367.455 258.502 367.388 258.581 367.353 258.673L364.91 264.806L361.771 265.641C361.709 265.658 361.651 265.686 361.601 265.724C361.552 265.761 361.51 265.807 361.48 265.859C361.449 265.912 361.43 265.969 361.424 266.027C361.418 266.086 361.424 266.146 361.443 266.202C361.456 266.251 361.48 266.298 361.512 266.338C361.545 266.379 361.587 266.413 361.634 266.439C361.693 266.477 361.761 266.502 361.831 266.513C361.902 266.524 361.975 266.52 362.044 266.501L365.415 265.604C365.49 265.586 365.559 265.551 365.616 265.503C365.673 265.456 365.716 265.396 365.742 265.329L368.144 259.284L371.925 259.495C371.515 261.861 371.365 264.258 371.474 266.651C371.479 267.233 371.641 267.804 371.945 268.316C372.248 268.827 372.685 269.262 373.216 269.584C373.747 269.905 374.356 270.102 374.99 270.158C375.624 270.214 376.263 270.127 376.851 269.904L383.962 267.274L385.326 270.091L380.004 274.305C379.947 274.354 379.903 274.414 379.875 274.481C379.846 274.548 379.835 274.62 379.84 274.691L380.14 277.882C380.148 277.948 380.169 278.012 380.205 278.07C380.24 278.128 380.288 278.179 380.345 278.219C380.442 278.276 380.557 278.302 380.673 278.294C380.801 278.281 380.918 278.223 381 278.132C381.081 278.041 381.121 277.925 381.109 277.808L380.836 274.841L386.295 270.553C386.375 270.489 386.43 270.404 386.452 270.309C386.474 270.215 386.462 270.117 386.418 270.029L384.89 266.938L385.436 266.726L390.799 261.041L392.655 262.213L391.604 266.975C391.577 267.065 391.577 267.159 391.604 267.249L393.501 270.914C393.541 270.983 393.597 271.043 393.665 271.089C393.74 271.128 393.824 271.149 393.911 271.149C393.997 271.149 394.082 271.128 394.156 271.089C394.256 271.037 394.333 270.955 394.375 270.858C394.417 270.76 394.422 270.653 394.388 270.553Z" fill="#263238"/>
<path d="M373.387 258.81L378.313 259.433L379.269 261.951L382.053 261.64L384.659 266.152L395.4 253.861L385.983 253.013L380.797 244.961L373.387 258.81Z" fill="#7A7A7A"/>
<path d="M384.384 266.514C384.316 266.477 384.26 266.426 384.22 266.364L381.777 262.126L379.334 262.388C379.222 262.4 379.108 262.377 379.011 262.322C378.915 262.268 378.841 262.186 378.802 262.088L377.956 259.832L373.316 259.246C373.239 259.239 373.166 259.213 373.103 259.172C373.041 259.13 372.992 259.074 372.961 259.009C372.924 258.948 372.904 258.88 372.904 258.81C372.904 258.74 372.924 258.672 372.961 258.611L380.371 244.774C380.414 244.703 380.476 244.645 380.552 244.604C380.627 244.564 380.713 244.542 380.801 244.542C380.889 244.542 380.975 244.564 381.051 244.604C381.126 244.645 381.189 244.703 381.231 244.774L386.294 252.627L395.465 253.45C395.554 253.455 395.638 253.484 395.708 253.533C395.779 253.581 395.832 253.648 395.861 253.724C395.894 253.798 395.906 253.878 395.894 253.957C395.882 254.036 395.847 254.11 395.793 254.173L385.039 266.427C384.99 266.486 384.926 266.533 384.852 266.564C384.778 266.594 384.697 266.607 384.616 266.601C384.531 266.593 384.45 266.562 384.384 266.514ZM382.309 261.266C382.374 261.31 382.43 261.365 382.473 261.428L384.725 265.33L394.442 254.223L385.926 253.462C385.849 253.456 385.775 253.432 385.71 253.393C385.646 253.354 385.593 253.3 385.557 253.238L380.822 245.908L374.121 258.448L378.379 258.985C378.469 258.995 378.554 259.028 378.624 259.081C378.695 259.134 378.747 259.205 378.775 259.284L379.607 261.465L381.995 261.191C382.106 261.181 382.218 261.207 382.309 261.266Z" fill="#263238"/>
<path d="M381.738 246.107L385.983 253.014L393.53 253.363L390.186 247.03L381.738 246.107Z" fill="#7A7A7A"/>
<path d="M385.711 253.388C385.651 253.347 385.6 253.297 385.561 253.238L381.316 246.319C381.269 246.25 381.244 246.17 381.244 246.089C381.244 246.007 381.269 245.927 381.316 245.858C381.369 245.792 381.439 245.739 381.52 245.704C381.601 245.669 381.691 245.653 381.78 245.659L390.242 246.581C390.323 246.591 390.4 246.619 390.466 246.663C390.533 246.706 390.587 246.764 390.624 246.83L393.954 253.164C393.994 253.233 394.016 253.31 394.016 253.388C394.016 253.466 393.994 253.543 393.954 253.612C393.903 253.674 393.837 253.725 393.761 253.759C393.685 253.794 393.602 253.812 393.517 253.812L385.984 253.463C385.886 253.466 385.791 253.439 385.711 253.388ZM382.64 246.656L386.284 252.578L392.726 252.877L389.873 247.466L382.64 246.656Z" fill="#263238"/>
<path d="M158.493 360.006L154.263 359.657L150.168 356.354C150.095 356.299 150.006 356.264 149.912 356.253C149.818 356.242 149.722 356.255 149.636 356.292L147.412 357.276L144.382 349.448C142.851 349.235 141.3 349.172 139.755 349.261L141.052 346.93C141.066 346.864 141.066 346.796 141.052 346.73L141.12 343.103L143.727 340.024C143.804 339.927 143.838 339.807 143.82 339.688C143.802 339.57 143.734 339.462 143.631 339.388C143.581 339.352 143.523 339.325 143.46 339.31C143.398 339.294 143.333 339.291 143.27 339.299C143.206 339.307 143.145 339.327 143.09 339.357C143.034 339.388 142.987 339.428 142.949 339.475L140.219 342.667C140.152 342.74 140.113 342.832 140.11 342.928V346.668L138.595 349.398L137.776 349.498L136.603 347.279L134.829 348.064L133.982 346.469C134.16 344.736 135.102 336.883 137.667 333.716C137.713 333.669 137.748 333.614 137.769 333.554C137.79 333.495 137.797 333.431 137.79 333.369C137.783 333.306 137.761 333.246 137.727 333.192C137.692 333.137 137.645 333.09 137.59 333.053C137.534 333.016 137.47 332.991 137.403 332.978C137.336 332.965 137.266 332.965 137.199 332.978C137.131 332.991 137.068 333.017 137.012 333.054C136.957 333.091 136.91 333.138 136.876 333.193C134.146 336.484 133.246 344.138 133.027 346.219L129.765 347.653C127.868 346.406 121.823 342.667 117.619 341.831C117.556 341.819 117.49 341.818 117.426 341.828C117.362 341.839 117.3 341.861 117.246 341.894C117.191 341.926 117.144 341.968 117.108 342.017C117.071 342.067 117.045 342.122 117.032 342.18C117.007 342.296 117.032 342.416 117.1 342.515C117.169 342.615 117.276 342.687 117.401 342.716C121.604 343.552 127.991 347.591 129.465 348.55L130.366 350.271L128.701 351.006L129.656 352.826C129.041 353.362 128.483 353.95 127.991 354.584L123.897 353.798L120.704 351.555C120.624 351.491 120.523 351.455 120.417 351.455L115.995 351.393C115.864 351.393 115.737 351.439 115.643 351.523C115.549 351.607 115.494 351.721 115.49 351.841C115.49 351.96 115.542 352.074 115.634 352.159C115.726 352.243 115.851 352.29 115.982 352.29L120.24 352.352L123.378 354.571C123.438 354.615 123.508 354.645 123.583 354.659L127.418 355.382C126.846 356.23 126.387 357.138 126.053 358.087C126.053 358.087 128.319 361.278 130.803 364.656L129.192 365.354C129.11 365.396 129.041 365.458 128.993 365.532C128.945 365.607 128.919 365.692 128.919 365.778L129.165 370.764L126.763 373.98C126.709 374.064 126.685 374.16 126.695 374.257C126.705 374.353 126.747 374.444 126.817 374.517C126.886 374.59 126.979 374.641 127.082 374.664C127.185 374.686 127.293 374.678 127.391 374.641C127.464 374.602 127.528 374.551 127.582 374.491L130.066 371.138C130.122 371.056 130.15 370.961 130.148 370.864L129.916 366.015L131.349 365.379C133.246 367.935 135.183 370.465 136.275 371.612L133.873 374.953C133.814 375.032 133.782 375.125 133.782 375.221C133.782 375.316 133.814 375.41 133.873 375.489L138.486 380.475L137.722 383.367C137.693 383.483 137.716 383.604 137.785 383.705C137.854 383.805 137.964 383.876 138.09 383.903C138.197 383.935 138.311 383.935 138.418 383.903C138.481 383.872 138.536 383.829 138.581 383.778C138.626 383.726 138.658 383.667 138.677 383.604L139.496 380.487C139.515 380.419 139.516 380.347 139.499 380.278C139.483 380.209 139.449 380.144 139.4 380.089L134.856 375.177L136.93 372.285C138.968 373.793 141.167 375.109 143.495 376.212C144.051 376.493 144.674 376.646 145.31 376.657C145.946 376.668 146.575 376.537 147.143 376.275C147.71 376.013 148.2 375.629 148.568 375.155C148.935 374.681 149.171 374.132 149.254 373.557L150.277 366.626L153.648 366.912L155.013 373.22C155.025 373.289 155.056 373.354 155.104 373.409C155.152 373.464 155.215 373.506 155.286 373.532L158.466 374.89C158.532 374.918 158.604 374.933 158.677 374.933C158.751 374.933 158.823 374.918 158.889 374.89C158.988 374.843 159.069 374.769 159.121 374.678C159.173 374.569 159.176 374.446 159.13 374.334C159.084 374.223 158.993 374.132 158.875 374.08L155.928 372.834L154.563 366.426C154.545 366.33 154.492 366.242 154.413 366.177C154.334 366.111 154.233 366.072 154.126 366.065L150.428 365.741L150.509 365.205L147.78 358.137L149.8 357.239L153.812 360.43C153.888 360.501 153.991 360.541 154.099 360.542L158.493 360.904C158.574 360.923 158.658 360.923 158.739 360.904C158.815 360.867 158.879 360.814 158.927 360.748C158.975 360.683 159.004 360.608 159.012 360.53C159.031 360.462 159.031 360.391 159.012 360.323C158.994 360.256 158.958 360.193 158.906 360.141C158.855 360.089 158.79 360.05 158.718 360.026C158.646 360.003 158.569 359.996 158.493 360.006Z" fill="#263238"/>
<path d="M136.915 370.814L139.958 367.211L142.824 367.71L143.916 365.354L149.498 365.529L143.152 350.906L137.679 357.949L127.443 358.062L136.915 370.814Z" fill="#7A7A7A"/>
<path d="M149.705 365.89C149.629 365.909 149.549 365.909 149.473 365.89L144.232 365.716L143.277 367.797C143.23 367.89 143.152 367.966 143.053 368.013C142.954 368.061 142.841 368.077 142.731 368.059L140.165 367.623L137.299 371.001C137.254 371.056 137.193 371.1 137.124 371.128C137.055 371.157 136.979 371.169 136.904 371.163C136.826 371.163 136.75 371.145 136.681 371.113C136.612 371.08 136.553 371.034 136.508 370.976L127.105 358.311C127.054 358.243 127.027 358.163 127.027 358.08C127.027 357.998 127.054 357.918 127.105 357.85C127.144 357.778 127.204 357.717 127.279 357.675C127.354 357.633 127.44 357.612 127.528 357.613L137.504 357.501L142.84 350.645C142.887 350.577 142.955 350.523 143.035 350.49C143.115 350.456 143.204 350.445 143.291 350.458C143.378 350.464 143.462 350.494 143.532 350.542C143.602 350.591 143.656 350.657 143.686 350.732L150.032 365.367C150.07 365.432 150.089 365.505 150.089 365.578C150.089 365.652 150.07 365.725 150.032 365.79C149.989 365.828 149.937 365.856 149.881 365.873C149.824 365.891 149.764 365.896 149.705 365.89ZM143.7 364.905C143.777 364.892 143.855 364.892 143.932 364.905L148.763 365.055L143.031 351.829L138.023 358.199C137.978 358.258 137.919 358.307 137.851 358.341C137.782 358.376 137.705 358.395 137.627 358.398L128.319 358.498L136.89 370.041L139.524 366.937C139.581 366.874 139.655 366.826 139.739 366.797C139.823 366.769 139.913 366.761 140.002 366.775L142.472 367.199L143.413 365.18C143.438 365.123 143.477 365.072 143.526 365.031C143.576 364.99 143.636 364.959 143.7 364.943V364.905Z" fill="#363636"/>
<path d="M128.998 357.878L137.678 357.953L141.745 352.141L134.075 351.642L128.998 357.878Z" fill="#7A7A7A"/>
<path d="M137.886 358.414C137.814 358.427 137.74 358.427 137.668 358.414L129.002 358.34C128.912 358.339 128.823 358.316 128.747 358.273C128.67 358.229 128.608 358.168 128.567 358.094C128.526 358.021 128.508 357.939 128.515 357.856C128.522 357.774 128.553 357.696 128.606 357.629L133.683 351.393C133.732 351.331 133.799 351.283 133.876 351.252C133.952 351.221 134.036 351.21 134.119 351.218L141.789 351.717C141.873 351.724 141.954 351.751 142.023 351.794C142.092 351.838 142.148 351.897 142.185 351.966C142.228 352.035 142.251 352.112 142.251 352.191C142.251 352.27 142.228 352.347 142.185 352.415L138.091 358.215C138.046 358.299 137.975 358.368 137.886 358.414ZM129.971 357.504H137.409L140.889 352.515L134.311 352.079L129.971 357.504Z" fill="#363636"/>
</svg>
