<svg width="44" height="43" viewBox="0 0 44 43" fill="none" xmlns="http://www.w3.org/2000/svg">
<path d="M23.6361 35.7224C27.2504 35.2625 30.554 33.4437 32.8754 30.6355C35.1968 27.8273 36.3618 24.2406 36.1336 20.6043C35.9055 16.968 34.3013 13.555 31.6471 11.059C28.9929 8.56303 25.4879 7.17135 21.8444 7.16683C18.1965 7.16411 14.6848 8.55239 12.0249 11.0488C9.36496 13.5452 7.75696 16.9619 7.52852 20.6026C7.30009 24.2434 8.46842 27.8342 10.7955 30.6435C13.1225 33.4528 16.4331 35.2691 20.0527 35.7224V25.0835H16.4694V21.5002H20.0527V18.5367C20.0527 16.1413 20.3036 15.2723 20.7694 14.3962C21.2283 13.5294 21.9375 12.8208 22.8047 12.3627C23.4892 11.9954 24.3402 11.775 25.8273 11.68C26.4167 11.6424 27.18 11.689 28.117 11.8234V15.2275H27.2194C25.5764 15.2275 24.8974 15.3046 24.4925 15.5214C24.2509 15.6456 24.0542 15.8423 23.9299 16.084C23.7149 16.4889 23.6361 16.8902 23.6361 18.535V21.5002H28.1152L27.2194 25.0835H23.6361V35.7224ZM21.8444 39.4168C11.949 39.4168 3.92773 31.3955 3.92773 21.5002C3.92773 11.6048 11.949 3.5835 21.8444 3.5835C31.7398 3.5835 39.7611 11.6048 39.7611 21.5002C39.7611 31.3955 31.7398 39.4168 21.8444 39.4168Z" fill="white"/>
</svg>
