<svg width="43" height="43" viewBox="0 0 43 43" fill="none" xmlns="http://www.w3.org/2000/svg">
<path d="M21.5007 16.1252C20.0751 16.1252 18.708 16.6915 17.7 17.6995C16.6919 18.7075 16.1257 20.0746 16.1257 21.5002C16.1257 22.9257 16.6919 24.2929 17.7 25.3009C18.708 26.3089 20.0751 26.8752 21.5007 26.8752C22.9262 26.8752 24.2933 26.3089 25.3014 25.3009C26.3094 24.2929 26.8757 22.9257 26.8757 21.5002C26.8757 20.0746 26.3094 18.7075 25.3014 17.6995C24.2933 16.6915 22.9262 16.1252 21.5007 16.1252ZM21.5007 12.5418C23.8766 12.5418 26.1551 13.4857 27.8352 15.1657C29.5152 16.8457 30.459 19.1243 30.459 21.5002C30.459 23.8761 29.5152 26.1547 27.8352 27.8347C26.1551 29.5147 23.8766 30.4585 21.5007 30.4585C19.1248 30.4585 16.8462 29.5147 15.1662 27.8347C13.4861 26.1547 12.5423 23.8761 12.5423 21.5002C12.5423 19.1243 13.4861 16.8457 15.1662 15.1657C16.8462 13.4857 19.1248 12.5418 21.5007 12.5418ZM33.1465 12.0939C33.1465 12.6879 32.9105 13.2575 32.4905 13.6775C32.0705 14.0975 31.5009 14.3335 30.9069 14.3335C30.3129 14.3335 29.7433 14.0975 29.3233 13.6775C28.9033 13.2575 28.6673 12.6879 28.6673 12.0939C28.6673 11.4999 28.9033 10.9303 29.3233 10.5103C29.7433 10.0903 30.3129 9.85433 30.9069 9.85433C31.5009 9.85433 32.0705 10.0903 32.4905 10.5103C32.9105 10.9303 33.1465 11.4999 33.1465 12.0939ZM21.5007 7.16683C17.0681 7.16683 16.3442 7.17937 14.282 7.27075C12.8774 7.33704 11.9349 7.52516 11.0606 7.86558C10.283 8.16658 9.72224 8.52671 9.12561 9.12512C8.56483 9.66692 8.13366 10.3284 7.86428 11.0601C7.52386 11.938 7.33574 12.8787 7.27124 14.2815C7.17807 16.2595 7.16732 16.9511 7.16732 21.5002C7.16732 25.9328 7.17986 26.6566 7.27124 28.7188C7.33753 30.1217 7.52565 31.0659 7.86428 31.9384C8.16886 32.7178 8.52719 33.2786 9.12203 33.8734C9.72582 34.4754 10.2866 34.8355 11.057 35.133C11.9421 35.4752 12.8845 35.6651 14.282 35.7296C16.26 35.8228 16.9516 35.8335 21.5007 35.8335C25.9332 35.8335 26.6571 35.821 28.7193 35.7296C30.1204 35.6633 31.0646 35.4752 31.9389 35.1365C32.7147 34.8338 33.2791 34.4736 33.8739 33.8788C34.4777 33.275 34.8378 32.7142 35.1352 31.9438C35.4757 31.0605 35.6656 30.1163 35.7301 28.7188C35.8232 26.7408 35.834 26.0492 35.834 21.5002C35.834 17.0676 35.8214 16.3437 35.7301 14.2815C35.6638 12.8805 35.4757 11.9345 35.1352 11.0601C34.8652 10.3291 34.4348 9.66793 33.8757 9.12512C33.3341 8.56405 32.6726 8.13284 31.9407 7.86379C31.0628 7.52337 30.1204 7.33525 28.7193 7.27075C26.7413 7.17758 26.0497 7.16683 21.5007 7.16683ZM21.5007 3.5835C26.3686 3.5835 26.976 3.60141 28.8859 3.691C30.794 3.78058 32.093 4.07979 33.2361 4.52412C34.4186 4.9792 35.4147 5.59554 36.4109 6.58991C37.322 7.48556 38.0269 8.56897 38.4767 9.76475C38.9192 10.906 39.2202 12.2068 39.3098 14.1149C39.394 16.0248 39.4173 16.6322 39.4173 21.5002C39.4173 26.3681 39.3994 26.9755 39.3098 28.8854C39.2202 30.7935 38.9192 32.0925 38.4767 33.2356C38.0282 34.432 37.3231 35.5157 36.4109 36.4104C35.515 37.3212 34.4317 38.0261 33.2361 38.4762C32.0948 38.9188 30.794 39.2198 28.8859 39.3093C26.976 39.3935 26.3686 39.4168 21.5007 39.4168C16.6327 39.4168 16.0253 39.3989 14.1154 39.3093C12.2073 39.2198 10.9083 38.9188 9.76523 38.4762C8.56899 38.0274 7.48539 37.3223 6.5904 36.4104C5.67917 35.5149 4.97419 34.4315 4.52461 33.2356C4.08028 32.0943 3.78107 30.7935 3.69148 28.8854C3.60728 26.9755 3.58398 26.3681 3.58398 21.5002C3.58398 16.6322 3.6019 16.0248 3.69148 14.1149C3.78107 12.205 4.08028 10.9078 4.52461 9.76475C4.97295 8.56823 5.67809 7.48453 6.5904 6.58991C7.48565 5.67837 8.56917 4.97334 9.76523 4.52412C10.9083 4.07979 12.2055 3.78058 14.1154 3.691C16.0253 3.60679 16.6327 3.5835 21.5007 3.5835Z" fill="white"/>
</svg>
