<svg width="104" height="34" viewBox="0 0 104 34" fill="none" xmlns="http://www.w3.org/2000/svg">
<path d="M0.88 34H20.56C28.24 34 32.08 29.44 32.08 23.44C32.08 17.44 27.28 15.28 27.28 15.28C27.28 15.232 29.68 13.12 29.68 9.04C29.68 2.8 25.12 0.399998 19.36 0.399998H0.88V34ZM7.12 12.16V5.92H18.64C22 5.92 23.44 7.36 23.44 9.52C23.44 11.92 21.52 13.6 21.52 13.6L7.12 12.16ZM7.12 28.24V17.68L20.32 18.88C23.68 19.168 25.84 20.08 25.84 23.68C25.84 27.28 22.96 28.24 20.32 28.24H7.12ZM36.4113 34H56.0913C63.7713 34 67.6113 29.44 67.6113 23.44C67.6113 17.44 62.8113 15.28 62.8113 15.28C62.8113 15.232 65.2113 13.12 65.2113 9.04C65.2113 2.8 60.6512 0.399998 54.8913 0.399998H36.4113V34ZM42.6513 12.16V5.92H54.1713C57.5312 5.92 58.9713 7.36 58.9713 9.52C58.9713 11.92 57.0513 13.6 57.0513 13.6L42.6513 12.16ZM42.6513 28.24V17.68L55.8513 18.88C59.2113 19.168 61.3713 20.08 61.3713 23.68C61.3713 27.28 58.4913 28.24 55.8513 28.24H42.6513ZM71.9425 34H78.1825V23.2L91.6225 22C98.8225 21.376 103.143 16.96 103.143 11.44V0.399998H71.9425V34ZM78.1825 17.44V6.16H96.9025V11.2C96.9025 14.8 94.0225 16 91.3825 16.24L78.1825 17.44Z" fill="#0071DA"/>
</svg>
