<svg width="44" height="43" viewBox="0 0 44 43" fill="none" xmlns="http://www.w3.org/2000/svg">
<path d="M22.1862 35.8335C25.9876 35.8335 29.6334 34.3234 32.3214 31.6354C35.0094 28.9473 36.5195 25.3016 36.5195 21.5002C36.5195 17.6987 35.0094 14.053 32.3214 11.365C29.6334 8.67695 25.9876 7.16683 22.1862 7.16683C18.3848 7.16683 14.739 8.67695 12.051 11.365C9.36298 14.053 7.85287 17.6987 7.85287 21.5002C7.85287 25.3016 9.36298 28.9473 12.051 31.6354C14.739 34.3234 18.3848 35.8335 22.1862 35.8335ZM22.1862 39.4168C12.2908 39.4168 4.26953 31.3955 4.26953 21.5002C4.26953 11.6048 12.2908 3.5835 22.1862 3.5835C32.0816 3.5835 40.1029 11.6048 40.1029 21.5002C40.1029 31.3955 32.0816 39.4168 22.1862 39.4168ZM16.6141 23.5964L12.1385 22.2007C11.171 21.9051 11.1657 21.2386 12.3553 20.7602L29.7936 14.0235C30.8059 13.6115 31.3792 14.1328 31.0514 15.439L28.0826 29.4498C27.8747 30.4478 27.2745 30.686 26.4414 30.2256L21.8709 26.8429L19.7406 28.8997C19.522 29.1112 19.3446 29.2921 19.0078 29.3369C18.6727 29.3835 18.3968 29.2832 18.1944 28.7278L16.6356 23.5839L16.6141 23.5982V23.5964Z" fill="white"/>
</svg>
